<?xml version="1.0" encoding="utf-8"?><!DOCTYPE svg PUBLIC "-//W3C//DTD SVG 1.1//EN" "http://www.w3.org/Graphics/SVG/1.1/DTD/svg11.dtd"><svg version="1.1" id="Layer_1" xmlns="http://www.w3.org/2000/svg" xmlns:xlink="http://www.w3.org/1999/xlink" x="0px" y="0px"  width="160px" height="45.818px" viewBox="0.233 0.035 160 45.818" enable-background="new 0.233 0.035 160 45.818"  xml:space="preserve"><g> <ellipse fill="#857770" cx="3.209" cy="20.337" rx="2.976" ry="2.986"/> <path fill="#857770" d="M4.008,25.026H2.41c-0.952,0-1.731,0.779-1.731,1.735v16.941c0,0.956,0.779,1.737,1.731,1.737h1.598  c0.952,0,1.73-0.781,1.73-1.737V26.762C5.738,25.806,4.959,25.026,4.008,25.026z"/> <g>  <g>   <path fill="#ED7331" d="M111.457,31.53c0,2.063-0.337,3.977-1.007,5.747c-0.674,1.769-1.653,3.293-2.942,4.574    c-1.275,1.278-2.77,2.264-4.486,2.962c-1.713,0.691-3.62,1.04-5.717,1.04c-2.044,0-3.881-0.287-5.513-0.866    c-1.631-0.577-3.065-1.425-4.301-2.539c-1.413-1.28-2.494-2.831-3.25-4.656c-0.754-1.823-1.129-3.826-1.129-6.017    c0-2.076,0.34-3.996,1.025-5.757c0.686-1.763,1.674-3.302,2.964-4.625c1.247-1.276,2.728-2.275,4.44-2.991    c1.718-0.714,3.635-1.073,5.763-1.073c2.248,0,4.276,0.376,6.078,1.126c1.802,0.748,3.328,1.811,4.577,3.19    c1.165,1.279,2.04,2.756,2.623,4.434C111.165,27.759,111.457,29.576,111.457,31.53z M106.026,31.614    c0-1.527-0.209-2.909-0.628-4.14c-0.417-1.232-1.008-2.281-1.769-3.147c-0.761-0.87-1.682-1.539-2.756-2.011    c-1.077-0.475-2.28-0.715-3.61-0.715c-1.304,0-2.494,0.229-3.57,0.683s-2.001,1.109-2.774,1.972    c-0.775,0.859-1.38,1.909-1.814,3.146c-0.429,1.238-0.646,2.64-0.646,4.212c0,1.567,0.218,2.974,0.646,4.22    c0.435,1.246,1.039,2.3,1.814,3.165c0.773,0.868,1.698,1.531,2.774,1.996c1.076,0.46,2.267,0.689,3.57,0.689    c1.29,0,2.466-0.229,3.538-0.689c1.068-0.465,1.992-1.128,2.766-1.996c0.775-0.865,1.38-1.919,1.811-3.165    C105.81,34.588,106.026,33.182,106.026,31.614z"/>  </g> </g> <path fill="#857770" d="M28.734,17.578h-17.7c-0.952,0-1.73,0.782-1.73,1.737v0.799c0,0.955,0.779,1.736,1.73,1.736h4.581  c0.952,0,1.73,0.782,1.73,1.736v20.119c0,0.954,0.778,1.735,1.73,1.735h1.616c0.952,0,1.731-0.781,1.731-1.735V23.586  c0-0.955,0.778-1.736,1.73-1.736h4.581c0.952,0,1.73-0.781,1.73-1.736v-0.799C30.465,18.36,29.686,17.578,28.734,17.578z"/> <path fill="#ED7331" d="M80.304,43.054c0,0-5.336-8.49-5.805-9.186c-0.712-1.059-1.234-1.287-1.234-1.312  c5.12-1.923,5.143-6.308,5.143-7.244c0-0.547-0.004-3.133-1.707-4.974c-1.707-1.847-4.306-2.971-7.375-2.971h-6.59  c-0.952,0-1.73,0.781-1.73,1.736v24.39c0,0.954,0.778,1.735,1.73,1.735h1.64c0.952,0,1.73-0.781,1.73-1.735v-7.3  c0-1.034,0.778-1.737,1.73-1.737h0.099c0.907,0,1.505,0.746,1.837,1.238c0.44,0.65,4.578,7.343,4.578,7.343  c0.718,1.206,2.183,2.191,3.443,2.191h1.578C80.63,45.228,81.052,44.25,80.304,43.054z M71.999,28.92  c-0.415,0.376-0.902,0.67-1.462,0.88c-0.562,0.214-1.174,0.32-1.837,0.32h-2.596v-8.409h2.554c0.802,0,1.495,0.11,2.076,0.328  c0.582,0.218,1.066,0.513,1.453,0.882c0.388,0.369,0.675,0.803,0.862,1.302c0.188,0.498,0.281,1.035,0.281,1.609  c0,0.629-0.118,1.207-0.354,1.732C72.74,28.092,72.415,28.542,71.999,28.92z"/> <path fill="#ED7331" d="M54.371,31.302h-1.639c-0.952,0-1.73,0.781-1.73,1.735v7.749c-0.33,0.15-0.823,0.324-1.246,0.409  c-0.202,0.041-4.22,1.038-7.385-0.358c-1.199-0.528-3.579-1.685-4.875-5.114c-0.44-1.164-1.139-4.717,0.084-8.026  c1.166-3.151,3.889-4.882,5.161-5.321c5.267-1.82,9.883,0.224,10.472,0.443c0.813,0.305,1.741-0.153,1.757-1.108V20.05  c-0.001-0.985-0.701-1.488-1.439-1.75c-0.662-0.195-3.469-1.05-6.747-0.971c-2.316,0.056-4.425,0.371-6.324,1.115  c-1.9,0.742-3.527,1.776-4.877,3.095c-1.348,1.322-2.396,2.888-3.136,4.698c-0.74,1.809-1.111,3.771-1.111,5.89  c0,2.051,0.335,3.921,1.008,5.608c0.673,1.684,1.629,3.13,2.869,4.334c1.241,1.202,2.748,2.135,4.516,2.799  c1.769,0.656,3.757,0.986,5.968,0.986c2.138,0,4.089-0.229,5.851-0.689c1.146-0.298,2.179-0.646,3.12-1.033  c0.86-0.438,1.436-1.328,1.436-2.367v-8.727C56.101,32.083,55.322,31.302,54.371,31.302z"/> <g>  <g>   <path fill="#ED7331" d="M146.42,43.436c-0.424,1.252-1.851,2.277-3.167,2.277h-0.258c-1.318,0-2.763-1.018-3.21-2.261    c0,0-5.894-16.499-6.093-17.312l0,0c-0.081,0-6.276,17.315-6.276,17.315c-0.453,1.242-1.906,2.257-3.224,2.257h-0.16    c-1.318,0-2.756-1.02-3.196-2.267l-7.587-21.037c-0.441-1.247,0.277-2.267,1.596-2.267h2.014c1.317,0,2.729,1.03,3.137,2.288    l4.366,14.442l0,0c0.081,0,5.654-16.359,5.654-16.359c0.43-1.25,0.424-3.295-0.011-4.543l-0.597-1.717    c-0.436-1.248,0.287-2.269,1.605-2.269h1.349c1.316,0,2.747,1.023,3.179,2.271l7.682,22.466l0,0    c0.056,0,10.662-34.391,10.662-34.391c0.391-1.263,1.788-2.296,3.106-2.296h1.494c1.318,0,2.051,1.023,1.628,2.277L146.42,43.436    z"/>  </g>  <g>   <path fill="#ED7331" d="M147.717,36.894c-0.376,1.112-1.642,2.022-2.813,2.022h-0.229c-0.724-0.637,1.736-9.741,4.377-18.687    s5.462-17.732,5.462-17.732c0.347-1.122,1.231-2.013,2.401-2.013h1.327c1.172,0,1.822,0.909,1.446,2.022L153.702,19.7    L147.717,36.894z"/>   <path fill="#EE7431" d="M154.521,2.492c0.345-1.116,1.227-2.003,2.392-2.002c0,0,1.321,0,1.321,0.001    c1.166,0,1.813,0.904,1.439,2.012l-2.732,7.844l-3.228,9.266l-0.002,0.005l-3.926,11.273l-2.031,5.83    c-0.374,1.106-1.634,2.013-2.8,2.013h-0.229c-0.441-0.389,0.307-3.94,1.557-8.68c0.79-2.997,1.781-6.468,2.8-9.917    c0.461-1.563,0.929-3.123,1.385-4.631c0.474-1.567,0.938-3.078,1.372-4.481C153.362,6.093,154.52,2.491,154.521,2.492z"/>   <path fill="#EE7431" d="M154.528,2.487c0.345-1.11,1.222-1.993,2.382-1.991c0.001,0,1.315,0.001,1.316,0.001    c1.16,0,1.804,0.9,1.431,2.002l-2.72,7.805l-3.213,9.221l-0.002,0.005l-3.908,11.218l-2.023,5.802    c-0.372,1.102-1.626,2.003-2.786,2.003h-0.228c-0.438-0.388,0.305-3.921,1.55-8.638c0.786-2.982,1.772-6.437,2.785-9.868    c0.46-1.557,0.926-3.108,1.38-4.61c0.472-1.559,0.934-3.063,1.365-4.46C153.374,6.07,154.526,2.486,154.528,2.487z"/>   <path fill="#EE7532" d="M154.536,2.481c0.343-1.105,1.217-1.982,2.372-1.981c0.001,0,1.31,0.001,1.312,0.002    c1.154,0,1.793,0.896,1.423,1.993l-2.708,7.767l-3.199,9.175l-0.002,0.005l-3.891,11.164l-2.015,5.773    c-0.37,1.096-1.618,1.993-2.773,1.993h-0.226c-0.437-0.387,0.304-3.902,1.542-8.597c0.782-2.968,1.765-6.405,2.772-9.819    c0.458-1.549,0.921-3.094,1.373-4.588c0.47-1.552,0.93-3.048,1.359-4.438C153.386,6.046,154.533,2.48,154.536,2.481z"/>   <path fill="#EE7532" d="M154.543,2.476c0.343-1.099,1.213-1.972,2.363-1.97c0.002,0.001,1.304,0.002,1.306,0.003    c1.148,0,1.784,0.891,1.416,1.982l-2.696,7.729l-3.186,9.13l-0.002,0.005l-3.874,11.108l-2.004,5.744    c-0.369,1.09-1.612,1.983-2.761,1.983h-0.225c-0.435-0.385,0.302-3.884,1.534-8.555c0.779-2.952,1.756-6.373,2.759-9.771    c0.455-1.542,0.917-3.079,1.367-4.565c0.468-1.544,0.926-3.034,1.354-4.417C153.397,6.023,154.539,2.475,154.543,2.476z"/>   <path fill="#EE7632" d="M154.552,2.471c0.341-1.094,1.208-1.962,2.354-1.959c0.002,0.001,1.298,0.002,1.3,0.004    c1.143,0,1.775,0.887,1.408,1.973l-2.685,7.69l-3.171,9.085l-0.002,0.005l-3.856,11.052l-1.996,5.717    c-0.366,1.084-1.604,1.974-2.747,1.974h-0.224c-0.432-0.383,0.301-3.865,1.527-8.513c0.775-2.938,1.747-6.341,2.745-9.722    c0.453-1.534,0.912-3.064,1.36-4.543c0.467-1.537,0.922-3.02,1.349-4.396C153.409,6,154.547,2.47,154.552,2.471z"/>   <path fill="#EE7632" d="M154.559,2.465c0.341-1.088,1.204-1.951,2.345-1.948c0.002,0.001,1.292,0.003,1.294,0.005    c1.137,0,1.766,0.882,1.401,1.962l-2.673,7.652l-3.157,9.039l-0.002,0.005l-3.839,10.997l-1.987,5.688    c-0.364,1.079-1.597,1.964-2.733,1.964h-0.223c-0.43-0.382,0.3-3.846,1.52-8.47c0.771-2.923,1.739-6.31,2.732-9.674    c0.451-1.527,0.908-3.05,1.354-4.522c0.464-1.529,0.918-3.005,1.343-4.374C153.42,5.977,154.553,2.464,154.559,2.465z"/>   <path fill="#EE7733" d="M154.566,2.459c0.34-1.082,1.199-1.94,2.335-1.937c0.002,0.001,1.286,0.003,1.288,0.005    c1.132,0,1.757,0.878,1.394,1.952l-2.66,7.613l-3.144,8.994l-0.002,0.005l-3.821,10.942l-1.979,5.658    c-0.362,1.073-1.589,1.955-2.72,1.955h-0.223c-0.427-0.381,0.299-3.827,1.513-8.428c0.769-2.909,1.73-6.279,2.719-9.626    c0.449-1.52,0.904-3.035,1.349-4.5c0.461-1.522,0.912-2.99,1.335-4.353C153.432,5.954,154.56,2.458,154.566,2.459z"/>   <path fill="#EE7733" d="M154.574,2.454c0.338-1.077,1.194-1.931,2.325-1.926c0.002,0.002,1.28,0.004,1.283,0.006    c1.125,0,1.747,0.874,1.386,1.943l-2.648,7.575L153.79,19l-0.002,0.005l-3.803,10.886l-1.971,5.63    c-0.36,1.068-1.582,1.944-2.707,1.944h-0.221c-0.425-0.378,0.298-3.808,1.506-8.385c0.764-2.895,1.722-6.247,2.704-9.577    c0.448-1.512,0.9-3.021,1.342-4.478c0.46-1.515,0.909-2.975,1.331-4.332C153.443,5.93,154.565,2.453,154.574,2.454z"/>   <path fill="#EE7833" d="M154.581,2.448c0.338-1.071,1.19-1.92,2.316-1.915c0.003,0.002,1.274,0.004,1.277,0.007    c1.12,0,1.737,0.869,1.379,1.933l-2.638,7.536l-3.115,8.903l-0.001,0.006l-3.786,10.831l-1.962,5.602    c-0.359,1.062-1.574,1.935-2.693,1.935h-0.22c-0.422-0.377,0.296-3.789,1.498-8.344c0.76-2.879,1.713-6.215,2.691-9.528    c0.444-1.505,0.896-3.005,1.335-4.456c0.458-1.507,0.905-2.961,1.324-4.31C153.455,5.907,154.572,2.447,154.581,2.448z"/>   <path fill="#EE7833" d="M154.59,2.443c0.336-1.065,1.185-1.91,2.306-1.904c0.004,0.002,1.269,0.005,1.272,0.008    c1.114,0,1.728,0.865,1.371,1.923l-2.625,7.498l-3.101,8.857l-0.003,0.006l-3.769,10.774l-1.953,5.573    c-0.356,1.058-1.566,1.926-2.68,1.926h-0.219c-0.42-0.375,0.295-3.771,1.491-8.301c0.756-2.865,1.704-6.185,2.678-9.481    c0.442-1.497,0.892-2.99,1.329-4.434c0.455-1.5,0.901-2.946,1.318-4.289C153.467,5.884,154.579,2.442,154.59,2.443z"/>   <path fill="#EE7934" d="M154.597,2.438c0.336-1.059,1.181-1.899,2.297-1.893c0.004,0.002,1.263,0.005,1.268,0.009    c1.107,0,1.718,0.861,1.362,1.913l-2.613,7.459l-3.086,8.812l-0.003,0.005l-3.751,10.72l-1.944,5.545    c-0.354,1.052-1.56,1.915-2.667,1.915h-0.217c-0.418-0.373,0.294-3.751,1.483-8.259c0.752-2.851,1.696-6.153,2.665-9.432    c0.44-1.49,0.887-2.976,1.322-4.412c0.454-1.492,0.896-2.931,1.312-4.267C153.479,5.861,154.586,2.437,154.597,2.438z"/>   <path fill="#EE7934" d="M154.604,2.432c0.334-1.054,1.176-1.889,2.287-1.882c0.005,0.002,1.257,0.005,1.262,0.009    c1.103,0,1.709,0.856,1.355,1.903l-2.601,7.421l-3.073,8.767l-0.003,0.005l-3.733,10.665l-1.935,5.516    c-0.354,1.046-1.553,1.905-2.654,1.905h-0.216c-0.415-0.371,0.292-3.731,1.476-8.216c0.749-2.836,1.688-6.122,2.651-9.385    c0.438-1.482,0.883-2.96,1.316-4.39c0.451-1.485,0.893-2.917,1.307-4.246C153.49,5.837,154.593,2.431,154.604,2.432z"/>   <path fill="#EF7A34" d="M154.612,2.427c0.334-1.049,1.172-1.878,2.278-1.872c0.005,0.003,1.251,0.006,1.256,0.01    c1.097,0,1.699,0.852,1.348,1.893l-2.589,7.383l-3.06,8.721l-0.002,0.005l-3.716,10.609l-1.927,5.487    c-0.352,1.041-1.545,1.896-2.641,1.896h-0.215c-0.412-0.37,0.291-3.713,1.469-8.174c0.744-2.822,1.679-6.09,2.638-9.336    c0.437-1.475,0.879-2.946,1.311-4.368c0.449-1.477,0.889-2.902,1.3-4.225C153.503,5.815,154.6,2.425,154.612,2.427z"/>   <path fill="#EF7A34" d="M154.62,2.421c0.332-1.042,1.167-1.868,2.269-1.861c0.005,0.003,1.245,0.007,1.251,0.011    c1.09,0,1.689,0.848,1.339,1.884l-2.576,7.344l-3.045,8.676l-0.003,0.005l-3.698,10.554l-1.918,5.459    c-0.35,1.035-1.537,1.887-2.627,1.887h-0.214c-0.411-0.369,0.29-3.694,1.462-8.133c0.74-2.807,1.669-6.058,2.624-9.287    c0.434-1.468,0.874-2.932,1.304-4.347c0.447-1.469,0.885-2.887,1.294-4.202C153.514,5.792,154.605,2.42,154.62,2.421z"/>   <path fill="#EF7B35" d="M154.627,2.416c0.332-1.037,1.163-1.858,2.26-1.85c0.005,0.003,1.239,0.007,1.245,0.012    c1.084,0,1.68,0.843,1.332,1.874l-2.565,7.306l-3.03,8.63l-0.002,0.005l-3.682,10.498l-1.909,5.432    c-0.348,1.029-1.529,1.876-2.613,1.876h-0.213c-0.408-0.367,0.288-3.676,1.454-8.09c0.737-2.793,1.661-6.027,2.61-9.24    c0.432-1.46,0.87-2.917,1.298-4.324c0.445-1.462,0.88-2.873,1.288-4.182C153.525,5.768,154.612,2.414,154.627,2.416z"/>   <path fill="#EF7B35" d="M154.635,2.41c0.331-1.031,1.158-1.848,2.25-1.839c0.006,0.003,1.232,0.008,1.239,0.013    c1.078,0,1.671,0.839,1.325,1.863l-2.554,7.268l-3.017,8.585l-0.002,0.006l-3.664,10.442l-1.9,5.402    c-0.346,1.023-1.521,1.866-2.601,1.866h-0.211c-0.406-0.365,0.287-3.656,1.446-8.048c0.733-2.777,1.652-5.995,2.598-9.191    c0.43-1.453,0.865-2.901,1.291-4.302c0.442-1.455,0.876-2.858,1.282-4.16C153.537,5.745,154.619,2.409,154.635,2.41z"/>   <path fill="#EF7C35" d="M154.643,2.405c0.329-1.026,1.153-1.837,2.24-1.828c0.006,0.003,1.227,0.008,1.233,0.013    c1.073,0,1.662,0.834,1.318,1.854l-2.542,7.229l-3.003,8.54l-0.002,0.005l-3.646,10.388l-1.892,5.373    c-0.344,1.019-1.514,1.857-2.587,1.857h-0.211c-0.403-0.364,0.286-3.638,1.439-8.006c0.729-2.764,1.645-5.964,2.584-9.143    c0.428-1.445,0.861-2.887,1.285-4.28c0.441-1.448,0.872-2.843,1.276-4.139C153.548,5.721,154.626,2.403,154.643,2.405z"/>   <path fill="#EF7C35" d="M154.65,2.4c0.328-1.02,1.148-1.827,2.23-1.817c0.007,0.004,1.222,0.008,1.229,0.014    c1.067,0,1.652,0.83,1.311,1.844l-2.53,7.191l-2.988,8.494l-0.003,0.005l-3.628,10.332l-1.883,5.345    c-0.343,1.013-1.508,1.848-2.574,1.848h-0.209c-0.401-0.363,0.284-3.619,1.432-7.964c0.726-2.749,1.636-5.933,2.57-9.095    c0.426-1.438,0.857-2.872,1.278-4.258c0.439-1.439,0.869-2.829,1.271-4.117C153.561,5.698,154.633,2.397,154.65,2.4z"/>   <path fill="#EF7D36" d="M154.658,2.394c0.327-1.014,1.144-1.816,2.221-1.806c0.007,0.004,1.216,0.009,1.224,0.015    c1.061,0,1.643,0.826,1.302,1.834l-2.518,7.152l-2.975,8.449l-0.002,0.005l-3.611,10.276l-1.874,5.317    c-0.341,1.007-1.5,1.837-2.562,1.837h-0.207c-0.399-0.361,0.283-3.601,1.424-7.922c0.722-2.733,1.627-5.901,2.557-9.046    c0.424-1.431,0.854-2.857,1.273-4.236c0.437-1.432,0.863-2.813,1.264-4.095C153.572,5.675,154.64,2.392,154.658,2.394z"/>   <path fill="#EF7D36" d="M154.666,2.389c0.326-1.009,1.139-1.806,2.211-1.795c0.007,0.004,1.21,0.009,1.218,0.016    c1.056,0,1.634,0.822,1.295,1.824l-2.506,7.114l-2.961,8.403l-0.002,0.005l-3.594,10.222l-1.865,5.288    c-0.339,1.002-1.492,1.827-2.548,1.827h-0.206c-0.397-0.359,0.281-3.581,1.417-7.879c0.718-2.72,1.618-5.87,2.543-8.998    c0.421-1.423,0.85-2.842,1.267-4.214c0.435-1.425,0.859-2.799,1.258-4.075C153.584,5.651,154.646,2.386,154.666,2.389z"/>   <path fill="#EF7E36" d="M154.674,2.384c0.325-1.003,1.135-1.796,2.202-1.785c0.007,0.004,1.204,0.01,1.212,0.017    c1.05,0,1.624,0.817,1.287,1.814l-2.493,7.075l-2.947,8.358l-0.003,0.005l-3.576,10.166l-1.855,5.26    c-0.338,0.996-1.485,1.817-2.535,1.817h-0.205c-0.395-0.357,0.28-3.562,1.409-7.837c0.714-2.705,1.61-5.838,2.53-8.95    c0.419-1.416,0.845-2.828,1.261-4.192c0.432-1.417,0.854-2.784,1.252-4.053C153.596,5.629,154.653,2.381,154.674,2.384z"/>   <path fill="#EF7E36" d="M154.682,2.378c0.324-0.998,1.13-1.786,2.191-1.773c0.008,0.004,1.199,0.01,1.208,0.017    c1.043,0,1.613,0.813,1.279,1.805l-2.482,7.036l-2.933,8.313l-0.002,0.005l-3.559,10.11l-1.848,5.231    c-0.336,0.99-1.478,1.808-2.521,1.808h-0.204c-0.393-0.355,0.279-3.543,1.401-7.794c0.711-2.69,1.602-5.807,2.517-8.902    c0.418-1.409,0.841-2.812,1.255-4.17c0.43-1.41,0.851-2.77,1.246-4.031C153.607,5.605,154.66,2.375,154.682,2.378z"/>   <path fill="#EF7F37" d="M154.688,2.373c0.323-0.992,1.126-1.775,2.184-1.763c0.008,0.005,1.192,0.011,1.201,0.018    c1.038,0,1.604,0.809,1.271,1.794l-2.47,6.998l-2.919,8.267l-0.002,0.005l-3.541,10.055l-1.84,5.202    c-0.333,0.985-1.47,1.798-2.508,1.798l-0.203,0.001c-0.39-0.354,0.278-3.524,1.395-7.753c0.707-2.676,1.594-5.775,2.503-8.854    c0.416-1.4,0.838-2.797,1.248-4.148c0.429-1.402,0.848-2.755,1.24-4.01C153.619,5.583,154.666,2.37,154.688,2.373z"/>   <path fill="#EF7F37" d="M154.696,2.367c0.322-0.986,1.121-1.765,2.173-1.751c0.009,0.005,1.188,0.011,1.197,0.019    c1.031,0,1.595,0.804,1.264,1.785l-2.458,6.959l-2.905,8.222l-0.002,0.005l-3.523,9.999l-1.831,5.175    c-0.331,0.979-1.462,1.788-2.494,1.788h-0.202c-0.387-0.354,0.277-3.506,1.388-7.711c0.703-2.661,1.584-5.743,2.489-8.804    c0.413-1.394,0.833-2.783,1.242-4.126c0.426-1.395,0.843-2.74,1.234-3.988C153.63,5.559,154.673,2.364,154.696,2.367z"/>   <path fill="#F08037" d="M154.704,2.361c0.321-0.98,1.116-1.754,2.163-1.741c0.01,0.005,1.181,0.012,1.191,0.02    c1.025,0,1.585,0.8,1.256,1.775l-2.445,6.921l-2.891,8.177l-0.003,0.005l-3.506,9.944l-1.822,5.146    c-0.329,0.974-1.454,1.778-2.48,1.778h-0.201c-0.386-0.352,0.275-3.486,1.38-7.668c0.699-2.646,1.576-5.712,2.476-8.756    c0.411-1.387,0.829-2.769,1.236-4.104c0.424-1.388,0.839-2.726,1.228-3.967C153.642,5.536,154.68,2.358,154.704,2.361z"/>   <path fill="#F08037" d="M154.712,2.356c0.32-0.975,1.112-1.744,2.154-1.73c0.01,0.006,1.175,0.013,1.185,0.021    c1.021,0,1.577,0.795,1.25,1.765l-2.435,6.882l-2.876,8.132l-0.003,0.005l-3.488,9.889l-1.813,5.117    c-0.327,0.968-1.447,1.769-2.468,1.769h-0.2c-0.383-0.35,0.274-3.468,1.373-7.626c0.695-2.633,1.567-5.681,2.463-8.708    c0.408-1.378,0.823-2.753,1.229-4.082c0.422-1.38,0.835-2.711,1.223-3.946C153.654,5.513,154.687,2.354,154.712,2.356z"/>   <path fill="#F08138" d="M154.72,2.351c0.319-0.969,1.106-1.733,2.145-1.719c0.01,0.006,1.169,0.013,1.18,0.021    c1.015,0,1.567,0.792,1.241,1.755l-2.422,6.845l-2.862,8.086l-0.003,0.005l-3.471,9.833l-1.805,5.089    c-0.325,0.963-1.439,1.759-2.455,1.759l-0.198,0.001c-0.38-0.35,0.273-3.449,1.365-7.584c0.691-2.618,1.559-5.649,2.449-8.66    c0.407-1.372,0.819-2.739,1.224-4.061c0.419-1.373,0.83-2.696,1.216-3.924C153.666,5.489,154.693,2.348,154.72,2.351z"/>   <path fill="#F08138" d="M154.728,2.345c0.317-0.964,1.102-1.724,2.135-1.708c0.01,0.006,1.163,0.013,1.174,0.021    c1.009,0,1.558,0.788,1.233,1.746l-2.41,6.806l-2.848,8.04l-0.003,0.005l-3.453,9.778l-1.796,5.061    c-0.323,0.957-1.433,1.749-2.441,1.749h-0.197c-0.379-0.348,0.271-3.431,1.357-7.542c0.688-2.604,1.551-5.617,2.436-8.611    c0.405-1.364,0.816-2.725,1.217-4.039c0.418-1.365,0.826-2.682,1.211-3.903C153.677,5.466,154.699,2.342,154.728,2.345z"/>   <path fill="#F08238" d="M154.735,2.34c0.317-0.958,1.098-1.713,2.125-1.697c0.011,0.006,1.157,0.014,1.169,0.022    c1.003,0,1.549,0.783,1.227,1.735l-2.398,6.768l-2.834,7.995l-0.003,0.005l-3.437,9.723l-1.786,5.031    c-0.322,0.952-1.426,1.74-2.429,1.74h-0.196c-0.376-0.346,0.271-3.411,1.351-7.5c0.684-2.589,1.542-5.586,2.423-8.563    c0.402-1.356,0.811-2.709,1.21-4.017c0.416-1.357,0.822-2.667,1.204-3.881C153.688,5.443,154.707,2.337,154.735,2.34z"/>   <path fill="#F08238" d="M154.743,2.334c0.315-0.952,1.093-1.703,2.116-1.687c0.011,0.006,1.15,0.014,1.163,0.023    c0.997,0,1.538,0.778,1.219,1.726l-2.387,6.729l-2.82,7.949l-0.003,0.005l-3.419,9.667l-1.777,5.003    c-0.32,0.946-1.418,1.729-2.415,1.729h-0.195c-0.373-0.344,0.27-3.392,1.344-7.457c0.68-2.575,1.532-5.555,2.408-8.515    c0.4-1.35,0.807-2.695,1.204-3.995c0.413-1.351,0.818-2.652,1.198-3.86C153.7,5.42,154.713,2.331,154.743,2.334z"/>   <path fill="#F08339" d="M154.75,2.329c0.315-0.947,1.089-1.692,2.106-1.676c0.012,0.007,1.146,0.015,1.158,0.024    c0.991,0,1.529,0.774,1.211,1.715l-2.374,6.69l-2.807,7.904l-0.003,0.005l-3.4,9.611l-1.77,4.975    c-0.318,0.94-1.411,1.72-2.401,1.72l-0.194,0.001c-0.371-0.343,0.268-3.374,1.336-7.416c0.676-2.56,1.524-5.523,2.396-8.467    c0.397-1.342,0.803-2.68,1.197-3.972c0.411-1.343,0.813-2.637,1.192-3.839C153.712,5.396,154.719,2.326,154.75,2.329z"/>   <path fill="#F08339" d="M154.758,2.323c0.314-0.941,1.084-1.682,2.097-1.665c0.012,0.007,1.14,0.015,1.153,0.025    c0.985,0,1.519,0.77,1.203,1.706l-2.363,6.652l-2.792,7.859l-0.003,0.005l-3.383,9.556l-1.761,4.946    c-0.316,0.936-1.403,1.711-2.389,1.711h-0.192c-0.369-0.341,0.267-3.354,1.328-7.373c0.672-2.545,1.516-5.492,2.382-8.419    c0.396-1.334,0.799-2.665,1.191-3.95c0.409-1.335,0.81-2.623,1.187-3.817C153.724,5.373,154.726,2.32,154.758,2.323z"/>   <path fill="#F08439" d="M154.766,2.318c0.312-0.936,1.079-1.671,2.088-1.654c0.012,0.007,1.133,0.016,1.146,0.025    c0.979,0,1.51,0.766,1.195,1.696l-2.351,6.613l-2.778,7.813l-0.003,0.005l-3.366,9.5l-1.752,4.918    c-0.313,0.93-1.395,1.7-2.374,1.7h-0.192c-0.366-0.339,0.266-3.335,1.321-7.331c0.669-2.53,1.507-5.46,2.368-8.37    c0.395-1.328,0.795-2.65,1.186-3.929c0.407-1.327,0.806-2.608,1.181-3.796C153.735,5.35,154.732,2.314,154.766,2.318z"/>   <path fill="#F08439" d="M154.773,2.312c0.312-0.93,1.074-1.661,2.078-1.643c0.012,0.007,1.127,0.016,1.141,0.026    c0.975,0,1.501,0.761,1.188,1.686l-2.338,6.575l-2.765,7.768l-0.002,0.005l-3.35,9.445l-1.743,4.889    c-0.312,0.925-1.388,1.691-2.361,1.691h-0.19c-0.364-0.338,0.264-3.316,1.313-7.289c0.665-2.516,1.498-5.429,2.354-8.321    c0.393-1.32,0.791-2.636,1.18-3.907c0.404-1.32,0.802-2.593,1.175-3.774C153.747,5.327,154.739,2.309,154.773,2.312z"/>   <path fill="#F0853A" d="M154.781,2.307c0.311-0.924,1.07-1.651,2.068-1.632c0.013,0.007,1.121,0.017,1.136,0.027    c0.968,0,1.491,0.757,1.181,1.676l-2.327,6.537l-2.75,7.723l-0.002,0.005l-3.332,9.391l-1.734,4.86    c-0.31,0.918-1.38,1.681-2.348,1.681h-0.189c-0.362-0.336,0.263-3.298,1.306-7.246c0.661-2.501,1.49-5.397,2.342-8.274    c0.39-1.312,0.786-2.621,1.173-3.884c0.403-1.313,0.797-2.579,1.168-3.753C153.758,5.304,154.746,2.304,154.781,2.307z"/>   <path fill="#F0853A" d="M154.788,2.302c0.311-0.919,1.065-1.641,2.06-1.621c0.013,0.007,1.115,0.017,1.13,0.027    c0.962,0,1.482,0.753,1.174,1.667l-2.315,6.498L154.1,16.55l-0.002,0.005l-3.314,9.334l-1.725,4.832    c-0.309,0.913-1.373,1.671-2.335,1.671h-0.188c-0.36-0.334,0.261-3.278,1.299-7.204c0.657-2.487,1.48-5.365,2.327-8.225    c0.388-1.305,0.782-2.606,1.167-3.863c0.4-1.305,0.793-2.564,1.162-3.731C153.77,5.28,154.753,2.298,154.788,2.302z"/>   <path fill="#F1863A" d="M154.797,2.296c0.309-0.913,1.061-1.63,2.049-1.61c0.014,0.008,1.11,0.018,1.125,0.028    c0.956,0,1.473,0.748,1.166,1.656l-2.304,6.46l-2.722,7.632l-0.003,0.004l-3.296,9.279l-1.717,4.804    c-0.308,0.907-1.365,1.661-2.322,1.661h-0.187c-0.357-0.332,0.26-3.259,1.291-7.162c0.653-2.472,1.473-5.334,2.314-8.177    c0.386-1.297,0.778-2.591,1.161-3.841c0.398-1.298,0.789-2.549,1.156-3.71C153.782,5.258,154.76,2.293,154.797,2.296z"/>   <path fill="#F1863A" d="M154.805,2.291c0.308-0.907,1.056-1.62,2.039-1.6c0.014,0.008,1.104,0.018,1.12,0.029    c0.95,0,1.462,0.744,1.157,1.646l-2.291,6.421l-2.708,7.587l-0.003,0.005l-3.278,9.224l-1.708,4.774    c-0.306,0.902-1.358,1.652-2.309,1.652h-0.186c-0.355-0.332,0.259-3.241,1.283-7.121c0.65-2.457,1.465-5.302,2.301-8.128    c0.385-1.29,0.774-2.576,1.155-3.819c0.396-1.291,0.785-2.535,1.15-3.689C153.794,5.234,154.767,2.287,154.805,2.291z"/>   <path fill="#F1873B" d="M154.812,2.285c0.308-0.901,1.052-1.609,2.03-1.588c0.014,0.008,1.099,0.018,1.114,0.03    c0.944,0,1.454,0.739,1.15,1.636l-2.278,6.383l-2.694,7.542l-0.003,0.005l-3.262,9.168l-1.699,4.747    c-0.304,0.896-1.351,1.642-2.295,1.642h-0.186c-0.353-0.33,0.258-3.222,1.277-7.078c0.646-2.442,1.455-5.271,2.287-8.08    c0.382-1.283,0.77-2.561,1.148-3.797c0.395-1.283,0.78-2.52,1.145-3.667C153.805,5.211,154.772,2.281,154.812,2.285z"/>   <path fill="#F1873B" d="M154.818,2.28c0.307-0.896,1.048-1.599,2.021-1.578c0.015,0.009,1.093,0.019,1.109,0.031    c0.938,0,1.443,0.735,1.143,1.626l-2.268,6.345l-2.68,7.496l-0.003,0.005l-3.244,9.113l-1.69,4.718    c-0.302,0.891-1.343,1.632-2.281,1.632h-0.185c-0.351-0.328,0.257-3.202,1.27-7.035c0.642-2.429,1.446-5.24,2.273-8.032    c0.38-1.275,0.766-2.546,1.143-3.775c0.392-1.275,0.778-2.505,1.139-3.646C153.824,5.19,154.779,2.276,154.818,2.28z"/>   <path fill="#F1883B" d="M154.826,2.274c0.306-0.891,1.043-1.589,2.012-1.566c0.015,0.009,1.087,0.019,1.104,0.031    c0.933,0,1.435,0.73,1.135,1.617l-2.255,6.306l-2.666,7.45l-0.003,0.005l-3.227,9.057l-1.682,4.689    c-0.3,0.886-1.336,1.623-2.269,1.623h-0.183c-0.348-0.327,0.255-3.185,1.262-6.994c0.639-2.414,1.438-5.208,2.261-7.983    c0.377-1.268,0.761-2.532,1.136-3.753c0.39-1.268,0.772-2.491,1.133-3.625C153.828,5.164,154.786,2.27,154.826,2.274z"/>   <path fill="#F1883B" d="M154.835,2.269c0.304-0.884,1.037-1.579,2.001-1.556c0.016,0.009,1.082,0.02,1.099,0.033    c0.927,0,1.425,0.726,1.128,1.607l-2.244,6.268l-2.651,7.405l-0.003,0.005l-3.209,9.002l-1.674,4.661    c-0.297,0.88-1.327,1.613-2.255,1.613h-0.182c-0.346-0.325,0.254-3.166,1.255-6.951c0.635-2.4,1.43-5.178,2.247-7.936    c0.375-1.261,0.757-2.517,1.13-3.731c0.388-1.261,0.768-2.476,1.126-3.603C153.84,5.141,154.793,2.265,154.835,2.269z"/>   <path fill="#F1893C" d="M154.842,2.264c0.304-0.879,1.033-1.568,1.993-1.545c0.016,0.009,1.074,0.021,1.092,0.033    c0.921,0,1.416,0.722,1.12,1.597l-2.231,6.229l-2.638,7.36l-0.003,0.004l-3.191,8.947l-1.665,4.632    c-0.295,0.875-1.32,1.604-2.241,1.604h-0.181c-0.344-0.323,0.253-3.146,1.247-6.909c0.631-2.385,1.421-5.146,2.233-7.887    c0.374-1.253,0.753-2.502,1.123-3.709c0.387-1.253,0.765-2.461,1.121-3.582C153.852,5.118,154.8,2.259,154.842,2.264z"/>   <path fill="#F1893C" d="M154.85,2.258c0.302-0.873,1.029-1.558,1.982-1.534c0.017,0.009,1.069,0.021,1.088,0.034    c0.915,0,1.405,0.718,1.112,1.588l-2.22,6.19l-2.624,7.314l-0.003,0.004l-3.174,8.891l-1.655,4.604    c-0.294,0.869-1.313,1.594-2.229,1.594h-0.18c-0.341-0.321,0.251-3.127,1.239-6.867c0.627-2.37,1.413-5.113,2.221-7.838    c0.371-1.246,0.748-2.487,1.117-3.687c0.383-1.246,0.76-2.446,1.114-3.56C153.863,5.094,154.807,2.254,154.85,2.258z"/>   <path fill="#F18A3C" d="M154.857,2.253c0.302-0.868,1.024-1.547,1.974-1.523c0.017,0.01,1.063,0.021,1.081,0.035    c0.91,0,1.397,0.713,1.105,1.578l-2.208,6.152l-2.609,7.268l-0.003,0.005l-3.156,8.835l-1.647,4.576    c-0.292,0.863-1.306,1.583-2.215,1.583H147c-0.339-0.32,0.25-3.108,1.232-6.825c0.623-2.355,1.404-5.082,2.207-7.79    c0.369-1.238,0.744-2.473,1.11-3.665c0.382-1.238,0.756-2.432,1.108-3.539C153.875,5.072,154.813,2.249,154.857,2.253z"/>   <path fill="#F18A3C" d="M154.865,2.248c0.3-0.863,1.02-1.538,1.964-1.512c0.017,0.01,1.058,0.021,1.076,0.035    c0.903,0,1.387,0.709,1.097,1.568l-2.195,6.114l-2.596,7.224l-0.003,0.004l-3.139,8.781l-1.639,4.547    c-0.29,0.857-1.298,1.574-2.201,1.574h-0.178c-0.336-0.319,0.249-3.09,1.226-6.783c0.619-2.341,1.395-5.051,2.193-7.742    c0.366-1.231,0.739-2.458,1.104-3.643c0.38-1.231,0.755-2.417,1.104-3.518C153.896,5.052,154.82,2.243,154.865,2.248z"/>   <path fill="#F18A3D" d="M154.873,2.242c0.299-0.856,1.015-1.527,1.954-1.501c0.018,0.01,1.052,0.022,1.07,0.037    c0.898,0,1.378,0.704,1.09,1.558l-2.184,6.075l-2.582,7.178l-0.003,0.005l-3.121,8.726l-1.63,4.518    c-0.288,0.852-1.291,1.564-2.188,1.564h-0.176c-0.334-0.317,0.247-3.071,1.218-6.74c0.615-2.327,1.387-5.02,2.18-7.694    c0.364-1.224,0.735-2.443,1.099-3.621c0.377-1.224,0.747-2.402,1.096-3.496C153.898,5.025,154.826,2.237,154.873,2.242z"/>   <path fill="#F18B3D" d="M154.88,2.236c0.299-0.851,1.011-1.517,1.945-1.491c0.018,0.01,1.046,0.023,1.065,0.038    c0.892,0,1.368,0.7,1.082,1.547l-2.172,6.037l-2.568,7.133l-0.003,0.005l-3.104,8.669l-1.621,4.49    c-0.286,0.847-1.283,1.554-2.175,1.554h-0.176c-0.331-0.316,0.247-3.052,1.211-6.698c0.611-2.312,1.378-4.988,2.166-7.646    c0.363-1.216,0.731-2.429,1.092-3.6c0.375-1.216,0.746-2.387,1.091-3.474C153.918,5.004,154.832,2.231,154.88,2.236z"/>   <path fill="#F18B3D" d="M154.888,2.23c0.297-0.845,1.006-1.506,1.936-1.479c0.018,0.01,1.04,0.023,1.06,0.038    c0.887,0,1.359,0.696,1.074,1.538l-2.159,5.999l-2.554,7.087l-0.004,0.005l-3.086,8.614l-1.612,4.462    c-0.284,0.841-1.275,1.544-2.162,1.544h-0.174c-0.329-0.314,0.245-3.032,1.203-6.656c0.608-2.298,1.37-4.957,2.153-7.597    c0.36-1.209,0.727-2.413,1.085-3.577c0.373-1.208,0.742-2.373,1.085-3.453C153.929,4.981,154.839,2.226,154.888,2.23z"/>   <path fill="#F28C3D" d="M154.896,2.226c0.297-0.84,1.001-1.496,1.927-1.469c0.018,0.011,1.033,0.023,1.054,0.039    c0.881,0,1.349,0.691,1.067,1.528l-2.148,5.96l-2.54,7.042l-0.003,0.004l-3.068,8.559l-1.604,4.434    c-0.283,0.835-1.269,1.534-2.148,1.534h-0.173c-0.327-0.312,0.243-3.014,1.195-6.614c0.604-2.283,1.361-4.925,2.14-7.549    c0.357-1.201,0.723-2.398,1.079-3.555c0.371-1.201,0.738-2.358,1.079-3.432C153.943,4.958,154.846,2.221,154.896,2.226z"/>   <path fill="#F28C3E" d="M154.903,2.22c0.295-0.833,0.996-1.485,1.917-1.457c0.018,0.011,1.027,0.024,1.049,0.039    c0.874,0,1.34,0.688,1.059,1.518l-2.136,5.921l-2.526,6.997l-0.003,0.005l-3.052,8.503l-1.595,4.404    c-0.28,0.83-1.26,1.525-2.135,1.525h-0.171c-0.325-0.312,0.242-2.996,1.188-6.572c0.601-2.269,1.354-4.894,2.126-7.501    c0.356-1.193,0.719-2.384,1.073-3.533c0.369-1.194,0.732-2.343,1.072-3.411C153.953,4.935,154.853,2.215,154.903,2.22z"/>   <path fill="#F28D3E" d="M154.911,2.214c0.294-0.828,0.991-1.475,1.907-1.447c0.019,0.011,1.021,0.024,1.043,0.04    c0.869,0,1.33,0.683,1.051,1.508l-2.123,5.883l-2.512,6.951l-0.004,0.005l-3.033,8.449l-1.586,4.375    c-0.279,0.824-1.254,1.516-2.123,1.516h-0.17c-0.322-0.31,0.241-2.977,1.182-6.53c0.596-2.254,1.344-4.862,2.112-7.453    c0.354-1.187,0.714-2.369,1.066-3.511c0.366-1.186,0.729-2.328,1.066-3.389C153.966,4.911,154.859,2.209,154.911,2.214z"/>   <path fill="#F28D3E" d="M154.919,2.209c0.293-0.823,0.987-1.464,1.897-1.436c0.019,0.011,1.016,0.025,1.037,0.041    c0.863,0,1.321,0.678,1.045,1.498l-2.113,5.845l-2.496,6.906l-0.004,0.004l-3.017,8.393l-1.577,4.348    c-0.277,0.819-1.246,1.505-2.109,1.505l-0.169,0.001c-0.319-0.309,0.24-2.958,1.174-6.488c0.593-2.239,1.335-4.83,2.099-7.404    c0.353-1.179,0.711-2.354,1.061-3.489c0.365-1.179,0.727-2.313,1.062-3.367C153.978,4.889,154.866,2.204,154.919,2.209z"/>   <path fill="#F28E3E" d="M154.927,2.204c0.292-0.817,0.982-1.455,1.888-1.425c0.02,0.011,1.011,0.025,1.032,0.042    c0.856,0,1.312,0.675,1.036,1.489l-2.1,5.806l-2.483,6.86l-0.003,0.005l-3,8.337l-1.568,4.319    c-0.274,0.812-1.238,1.495-2.095,1.495l-0.169,0.001c-0.317-0.307,0.239-2.939,1.166-6.446c0.59-2.225,1.327-4.799,2.086-7.355    c0.351-1.172,0.706-2.34,1.055-3.468c0.362-1.171,0.722-2.299,1.055-3.346C153.989,4.866,154.873,2.199,154.927,2.204z"/>   <path fill="#F28E3F" d="M154.935,2.198c0.29-0.812,0.978-1.444,1.878-1.414c0.02,0.012,1.005,0.026,1.027,0.043    c0.851,0,1.302,0.67,1.028,1.479l-2.089,5.768l-2.469,6.814l-0.004,0.005l-2.98,8.281l-1.561,4.291    c-0.272,0.808-1.23,1.486-2.082,1.486h-0.167c-0.315-0.305,0.237-2.92,1.159-6.404c0.585-2.21,1.317-4.768,2.071-7.307    c0.349-1.165,0.702-2.325,1.049-3.446c0.36-1.163,0.717-2.283,1.049-3.324C154.002,4.843,154.88,2.193,154.935,2.198z"/>   <path fill="#F28F3F" d="M154.941,2.192c0.29-0.806,0.974-1.434,1.869-1.403c0.02,0.012,0.998,0.026,1.021,0.043    c0.845,0,1.292,0.666,1.021,1.469l-2.076,5.729l-2.456,6.769l-0.003,0.005l-2.965,8.227l-1.551,4.262    c-0.271,0.803-1.223,1.477-2.068,1.477h-0.166c-0.313-0.304,0.236-2.9,1.151-6.361c0.581-2.195,1.31-4.736,2.059-7.259    c0.346-1.157,0.697-2.31,1.042-3.423c0.358-1.156,0.713-2.27,1.043-3.303C154.014,4.819,154.886,2.188,154.941,2.192z"/>   <path fill="#F28F3F" d="M154.949,2.188c0.289-0.8,0.969-1.423,1.859-1.393c0.021,0.013,0.993,0.027,1.016,0.044    c0.84,0,1.283,0.661,1.014,1.458l-2.064,5.691l-2.441,6.724l-0.003,0.005l-2.946,8.171l-1.543,4.232    c-0.269,0.797-1.215,1.467-2.055,1.467l-0.165,0.001c-0.311-0.302,0.235-2.883,1.144-6.319c0.578-2.181,1.301-4.705,2.045-7.211    c0.345-1.149,0.693-2.295,1.036-3.401c0.356-1.149,0.709-2.255,1.037-3.282C154.025,4.796,154.893,2.182,154.949,2.188z"/>   <path fill="#F2903F" d="M154.957,2.182c0.288-0.794,0.964-1.413,1.85-1.381c0.021,0.012,0.988,0.027,1.011,0.045    c0.834,0,1.274,0.656,1.007,1.448l-2.053,5.653l-2.428,6.679l-0.004,0.004l-2.928,8.116l-1.534,4.204    c-0.268,0.792-1.209,1.457-2.042,1.457l-0.164,0.001c-0.309-0.301,0.234-2.864,1.137-6.278c0.574-2.166,1.293-4.673,2.031-7.162    c0.342-1.142,0.689-2.281,1.03-3.379c0.354-1.142,0.705-2.24,1.03-3.26C154.036,4.772,154.899,2.177,154.957,2.182z"/>   <path fill="#F29040" d="M154.965,2.177c0.287-0.789,0.959-1.403,1.841-1.371c0.021,0.012,0.98,0.028,1.005,0.045    c0.827,0,1.264,0.653,0.998,1.439l-2.041,5.614l-2.413,6.633l-0.003,0.005l-2.912,8.06l-1.525,4.176    c-0.266,0.786-1.2,1.447-2.028,1.447l-0.162,0.001c-0.307-0.3,0.232-2.845,1.129-6.235c0.57-2.152,1.284-4.642,2.019-7.114    c0.34-1.134,0.685-2.265,1.023-3.357c0.352-1.134,0.7-2.225,1.024-3.239C154.049,4.75,154.906,2.171,154.965,2.177z"/>   <path fill="#F29140" d="M154.973,2.171c0.285-0.783,0.954-1.393,1.83-1.36c0.021,0.013,0.976,0.028,1,0.046    c0.822,0,1.255,0.648,0.99,1.429l-2.028,5.576l-2.399,6.588l-0.003,0.005l-2.895,8.004l-1.516,4.148    c-0.265,0.78-1.194,1.438-2.016,1.438h-0.161c-0.305-0.298,0.23-2.825,1.121-6.193c0.566-2.137,1.275-4.61,2.005-7.066    c0.337-1.127,0.681-2.25,1.017-3.336c0.351-1.126,0.697-2.21,1.02-3.217C154.061,4.726,154.912,2.165,154.973,2.171z"/>   <path fill="#F29140" d="M154.98,2.166c0.284-0.777,0.949-1.382,1.82-1.349c0.022,0.013,0.97,0.029,0.994,0.047    c0.816,0,1.246,0.644,0.984,1.419l-2.018,5.537l-2.385,6.543l-0.004,0.004l-2.876,7.95l-1.508,4.119    c-0.262,0.775-1.187,1.428-2.003,1.428h-0.159c-0.302-0.295,0.229-2.807,1.114-6.15c0.562-2.123,1.267-4.579,1.991-7.018    c0.335-1.12,0.677-2.236,1.011-3.314c0.348-1.119,0.692-2.196,1.013-3.195C154.072,4.704,154.92,2.16,154.98,2.166z"/>   <path fill="#F39240" d="M154.988,2.16c0.283-0.771,0.945-1.372,1.812-1.338c0.022,0.014,0.964,0.029,0.988,0.048    c0.811,0,1.236,0.64,0.977,1.41l-2.006,5.499l-2.37,6.497l-0.004,0.005l-2.859,7.894l-1.498,4.091    c-0.261,0.769-1.179,1.417-1.989,1.417l-0.159,0.001c-0.299-0.294,0.229-2.788,1.107-6.108c0.558-2.108,1.258-4.547,1.978-6.969    c0.333-1.112,0.672-2.222,1.005-3.292c0.346-1.111,0.688-2.182,1.007-3.175C154.084,4.681,154.927,2.154,154.988,2.16z"/>   <path fill="#F39241" d="M154.996,2.155c0.282-0.766,0.94-1.361,1.802-1.327c0.022,0.013,0.958,0.029,0.983,0.049    c0.805,0,1.227,0.635,0.968,1.399l-1.993,5.46l-2.357,6.451l-0.003,0.005l-2.842,7.838l-1.489,4.063    c-0.259,0.764-1.172,1.407-1.977,1.407h-0.158c-0.296-0.292,0.228-2.769,1.101-6.066c0.554-2.093,1.249-4.516,1.964-6.921    c0.331-1.105,0.668-2.206,0.998-3.27c0.344-1.104,0.686-2.166,1.002-3.152C154.097,4.657,154.934,2.148,154.996,2.155z"/>   <path fill="#F39341" d="M155.003,2.149c0.281-0.761,0.937-1.352,1.793-1.316c0.022,0.014,0.951,0.03,0.978,0.049    c0.799,0,1.217,0.631,0.961,1.39l-1.981,5.422l-2.343,6.406l-0.004,0.004l-2.824,7.783l-1.481,4.034    c-0.256,0.758-1.163,1.397-1.962,1.397l-0.157,0.001c-0.294-0.291,0.227-2.75,1.093-6.024c0.551-2.079,1.241-4.484,1.951-6.873    c0.328-1.098,0.663-2.192,0.992-3.248c0.341-1.096,0.68-2.152,0.994-3.131C154.106,4.633,154.939,2.143,155.003,2.149z"/>   <path fill="#F39341" d="M155.011,2.144c0.28-0.755,0.932-1.34,1.783-1.305c0.023,0.014,0.946,0.03,0.972,0.05    c0.793,0,1.208,0.626,0.953,1.379l-1.969,5.383l-2.329,6.361l-0.003,0.004l-2.807,7.728l-1.473,4.005    c-0.255,0.753-1.156,1.389-1.949,1.389h-0.155c-0.293-0.289,0.224-2.73,1.084-5.981c0.548-2.064,1.233-4.453,1.938-6.824    c0.326-1.09,0.658-2.177,0.985-3.226c0.339-1.089,0.677-2.137,0.989-3.11C154.12,4.611,154.946,2.138,155.011,2.144z"/>   <path fill="#F39441" d="M155.019,2.139c0.279-0.749,0.927-1.33,1.773-1.294c0.024,0.014,0.94,0.031,0.968,0.051    c0.787,0,1.197,0.622,0.944,1.37l-1.956,5.345l-2.316,6.315l-0.003,0.005l-2.789,7.672l-1.464,3.977    c-0.252,0.747-1.148,1.378-1.936,1.378l-0.154,0.001c-0.29-0.288,0.223-2.712,1.078-5.939c0.543-2.05,1.223-4.422,1.923-6.776    c0.325-1.083,0.655-2.162,0.979-3.204c0.338-1.082,0.673-2.123,0.983-3.088C154.131,4.587,154.953,2.132,155.019,2.139z"/>   <path fill="#F39442" d="M155.025,2.133c0.279-0.744,0.924-1.319,1.766-1.283c0.023,0.015,0.934,0.031,0.961,0.052    c0.781,0,1.188,0.618,0.938,1.36l-1.945,5.307l-2.301,6.27l-0.004,0.005l-2.771,7.616l-1.455,3.948    c-0.251,0.741-1.142,1.369-1.923,1.369h-0.153c-0.287-0.286,0.223-2.692,1.07-5.897c0.54-2.036,1.216-4.39,1.911-6.728    c0.322-1.076,0.65-2.147,0.974-3.182c0.334-1.074,0.668-2.107,0.977-3.067C154.144,4.564,154.959,2.127,155.025,2.133z"/>   <path fill="#F39542" d="M155.033,2.127c0.278-0.737,0.918-1.31,1.755-1.272c0.024,0.015,0.929,0.032,0.956,0.053    c0.775,0,1.179,0.614,0.931,1.351l-1.934,5.268l-2.287,6.225l-0.004,0.005l-2.754,7.561l-1.446,3.919    c-0.249,0.736-1.134,1.359-1.909,1.359l-0.152,0.001c-0.285-0.285,0.221-2.675,1.063-5.856c0.535-2.021,1.206-4.358,1.896-6.679    c0.32-1.068,0.646-2.133,0.967-3.16c0.333-1.066,0.663-2.093,0.971-3.046C154.154,4.541,154.966,2.121,155.033,2.127z"/>   <path fill="#F39542" d="M155.041,2.122c0.277-0.732,0.914-1.299,1.746-1.262c0.024,0.015,0.922,0.033,0.95,0.054    c0.77,0,1.169,0.609,0.923,1.34l-1.922,5.23l-2.273,6.179l-0.004,0.005l-2.735,7.505l-1.438,3.892    c-0.246,0.73-1.126,1.35-1.896,1.35h-0.151c-0.282-0.283,0.22-2.655,1.056-5.813c0.532-2.006,1.198-4.327,1.884-6.631    c0.318-1.061,0.643-2.117,0.961-3.138c0.33-1.059,0.66-2.079,0.965-3.024C154.166,4.519,154.973,2.115,155.041,2.122z"/>   <path fill="#F39643" d="M155.049,2.117c0.276-0.727,0.909-1.289,1.736-1.251c0.025,0.015,0.917,0.033,0.945,0.054    c0.764,0,1.16,0.605,0.914,1.331l-1.909,5.191l-2.259,6.134l-0.004,0.004l-2.719,7.451l-1.429,3.862    c-0.245,0.726-1.119,1.34-1.883,1.34l-0.15,0.001c-0.28-0.282,0.219-2.637,1.048-5.771c0.528-1.992,1.19-4.295,1.871-6.583    c0.316-1.054,0.639-2.103,0.954-3.116c0.329-1.052,0.655-2.064,0.959-3.003C154.179,4.495,154.98,2.11,155.049,2.117z"/>   <path fill="#F39643" d="M155.057,2.111c0.274-0.721,0.904-1.278,1.727-1.24c0.025,0.016,0.91,0.034,0.939,0.056    c0.758,0,1.15,0.6,0.907,1.32l-1.897,5.153l-2.245,6.089l-0.004,0.004l-2.701,7.395l-1.421,3.834    c-0.242,0.72-1.11,1.33-1.869,1.33h-0.148c-0.278-0.28,0.217-2.617,1.041-5.729c0.523-1.978,1.181-4.265,1.856-6.535    c0.313-1.046,0.635-2.088,0.948-3.094c0.326-1.044,0.651-2.049,0.953-2.981C154.189,4.472,154.986,2.104,155.057,2.111z"/>   <path fill="#F39743" d="M155.064,2.105c0.273-0.716,0.898-1.269,1.717-1.229c0.025,0.015,0.904,0.034,0.934,0.056    c0.752,0,1.141,0.596,0.899,1.311l-1.886,5.114l-2.23,6.043l-0.004,0.005l-2.684,7.339l-1.412,3.806    c-0.24,0.714-1.104,1.32-1.855,1.32l-0.148,0.001c-0.275-0.279,0.217-2.6,1.034-5.687c0.521-1.963,1.173-4.233,1.843-6.487    c0.312-1.038,0.631-2.073,0.942-3.072c0.324-1.037,0.647-2.034,0.947-2.96C154.203,4.449,154.993,2.099,155.064,2.105z"/>   <path fill="#F39743" d="M155.072,2.101c0.272-0.71,0.895-1.258,1.707-1.218c0.026,0.016,0.898,0.035,0.929,0.057    c0.746,0,1.132,0.591,0.892,1.3l-1.873,5.076l-2.217,5.997l-0.004,0.005l-2.667,7.284l-1.402,3.777    c-0.239,0.708-1.097,1.311-1.843,1.311h-0.146c-0.273-0.277,0.215-2.58,1.025-5.645c0.517-1.948,1.164-4.201,1.83-6.438    c0.311-1.032,0.626-2.059,0.936-3.051c0.322-1.029,0.644-2.02,0.941-2.938C154.213,4.425,155,2.094,155.072,2.101z"/>   <path fill="#F49844" d="M155.08,2.095c0.271-0.705,0.891-1.248,1.697-1.208c0.027,0.016,0.894,0.035,0.924,0.058    c0.74,0,1.122,0.587,0.885,1.291l-1.862,5.037l-2.203,5.952l-0.004,0.005l-2.649,7.229l-1.394,3.748    c-0.237,0.703-1.089,1.301-1.829,1.301l-0.146,0.001c-0.271-0.275,0.213-2.561,1.019-5.603c0.514-1.934,1.155-4.17,1.816-6.39    c0.308-1.023,0.622-2.044,0.93-3.028c0.32-1.022,0.639-2.005,0.935-2.917C154.226,4.402,155.006,2.088,155.08,2.095z"/>   <path fill="#F49844" d="M155.087,2.089c0.271-0.698,0.886-1.237,1.688-1.196c0.027,0.016,0.888,0.035,0.918,0.058    c0.734,0,1.112,0.583,0.877,1.281l-1.85,4.999l-2.189,5.907l-0.004,0.004l-2.631,7.173l-1.386,3.72    c-0.235,0.697-1.081,1.29-1.816,1.29l-0.144,0.001c-0.269-0.274,0.212-2.542,1.011-5.56c0.51-1.919,1.146-4.138,1.803-6.341    c0.307-1.017,0.618-2.029,0.924-3.007c0.317-1.014,0.635-1.99,0.929-2.896C154.236,4.379,155.013,2.083,155.087,2.089z"/>   <path fill="#F49944" d="M155.095,2.084c0.27-0.693,0.882-1.227,1.679-1.186c0.027,0.017,0.882,0.036,0.912,0.059    c0.729,0,1.104,0.579,0.869,1.271l-1.838,4.96l-2.174,5.861l-0.005,0.005l-2.613,7.118l-1.377,3.69    c-0.233,0.692-1.074,1.281-1.803,1.281l-0.144,0.001c-0.266-0.272,0.211-2.523,1.005-5.518c0.505-1.905,1.138-4.106,1.789-6.293    c0.304-1.009,0.613-2.014,0.917-2.984c0.316-1.007,0.631-1.976,0.923-2.875C154.249,4.356,155.02,2.077,155.095,2.084z"/>   <path fill="#F49944" d="M155.103,2.079c0.269-0.687,0.877-1.216,1.669-1.174c0.028,0.017,0.876,0.036,0.907,0.06    c0.723,0,1.094,0.574,0.862,1.261l-1.826,4.922l-2.161,5.816l-0.004,0.005l-2.597,7.062l-1.367,3.664    c-0.232,0.686-1.066,1.271-1.79,1.271l-0.142,0.001c-0.265-0.271,0.209-2.504,0.996-5.476c0.502-1.89,1.129-4.075,1.775-6.245    c0.302-1.001,0.609-1.999,0.911-2.962c0.313-1,0.627-1.961,0.917-2.854C154.26,4.333,155.026,2.071,155.103,2.079z"/>   <path fill="#F49A45" d="M155.11,2.073c0.268-0.682,0.872-1.206,1.659-1.163c0.028,0.017,0.871,0.037,0.902,0.061    c0.717,0,1.084,0.569,0.854,1.251l-1.813,4.883l-2.147,5.771l-0.003,0.005l-2.579,7.006l-1.359,3.635    c-0.23,0.682-1.059,1.262-1.776,1.262h-0.141c-0.262-0.269,0.208-2.484,0.989-5.433c0.497-1.875,1.12-4.043,1.762-6.197    c0.3-0.994,0.605-1.984,0.905-2.94c0.312-0.991,0.623-1.946,0.911-2.831C154.273,4.31,155.033,2.066,155.11,2.073z"/>   <path fill="#F49A45" d="M155.118,2.067c0.267-0.676,0.867-1.195,1.65-1.152c0.028,0.017,0.864,0.037,0.896,0.062    c0.711,0,1.075,0.565,0.847,1.241l-1.803,4.845l-2.132,5.726l-0.004,0.004l-2.562,6.952l-1.35,3.605    c-0.229,0.676-1.052,1.252-1.763,1.252l-0.141,0.001c-0.259-0.268,0.207-2.467,0.982-5.392c0.493-1.86,1.112-4.012,1.749-6.148    c0.297-0.987,0.601-1.97,0.898-2.918c0.309-0.985,0.618-1.932,0.904-2.81C154.283,4.286,155.04,2.061,155.118,2.067z"/>   <path fill="#F49B45" d="M155.125,2.062c0.266-0.67,0.863-1.185,1.641-1.142c0.029,0.017,0.858,0.038,0.891,0.062    c0.705,0,1.065,0.561,0.84,1.231l-1.791,4.807l-2.119,5.68l-0.003,0.005l-2.545,6.896l-1.341,3.578    c-0.227,0.669-1.045,1.241-1.75,1.241l-0.139,0.001c-0.257-0.267,0.205-2.447,0.975-5.349c0.49-1.846,1.104-3.98,1.735-6.1    c0.296-0.979,0.597-1.955,0.892-2.896c0.309-0.977,0.615-1.917,0.899-2.789C154.296,4.263,155.047,2.055,155.125,2.062z"/>   <path fill="#F49B45" d="M155.134,2.057c0.264-0.665,0.857-1.175,1.631-1.131c0.029,0.018,0.852,0.038,0.885,0.063    c0.699,0,1.056,0.557,0.831,1.221l-1.778,4.769l-2.104,5.635l-0.004,0.004l-2.526,6.84l-1.333,3.549    c-0.225,0.664-1.037,1.232-1.736,1.232l-0.137,0.001c-0.256-0.265,0.203-2.429,0.966-5.307c0.486-1.832,1.096-3.949,1.723-6.052    c0.293-0.972,0.592-1.94,0.886-2.875c0.305-0.97,0.61-1.902,0.894-2.768C154.31,4.24,155.053,2.049,155.134,2.057z"/>   <path fill="#F49C46" d="M155.141,2.052c0.264-0.659,0.854-1.165,1.622-1.12c0.03,0.018,0.847,0.039,0.88,0.063    c0.693,0,1.047,0.553,0.824,1.212L156.7,6.937l-2.091,5.589l-0.004,0.004l-2.51,6.785l-1.324,3.521    c-0.222,0.658-1.029,1.223-1.723,1.223h-0.136c-0.253-0.263,0.202-2.409,0.96-5.264c0.481-1.817,1.086-3.917,1.708-6.003    c0.29-0.965,0.588-1.926,0.88-2.853c0.303-0.962,0.606-1.887,0.887-2.746C154.319,4.217,155.06,2.044,155.141,2.052z"/>   <path fill="#F49C46" d="M155.148,2.046c0.263-0.653,0.85-1.154,1.612-1.109c0.03,0.018,0.841,0.039,0.874,0.064    c0.688,0,1.037,0.549,0.816,1.202l-1.754,4.691l-2.077,5.543l-0.005,0.005l-2.491,6.73l-1.314,3.491    c-0.222,0.653-1.022,1.213-1.71,1.213l-0.136,0.001c-0.25-0.262,0.202-2.391,0.952-5.223c0.479-1.803,1.078-3.887,1.695-5.955    c0.289-0.957,0.584-1.911,0.874-2.831c0.301-0.955,0.603-1.872,0.881-2.725C154.331,4.193,155.066,2.038,155.148,2.046z"/>   <path fill="#F49D46" d="M155.156,2.04c0.261-0.647,0.844-1.144,1.603-1.098c0.03,0.018,0.835,0.04,0.868,0.065    c0.683,0,1.027,0.543,0.809,1.192l-1.742,4.653l-2.062,5.498l-0.004,0.005l-2.475,6.674l-1.307,3.463    c-0.219,0.647-1.014,1.203-1.696,1.203l-0.134,0.001c-0.248-0.26,0.2-2.372,0.945-5.181c0.475-1.788,1.068-3.854,1.682-5.907    c0.286-0.95,0.579-1.896,0.867-2.809c0.299-0.947,0.598-1.857,0.875-2.703C154.345,4.17,155.072,2.032,155.156,2.04z"/>   <path fill="#F49D46" d="M155.164,2.035c0.26-0.642,0.84-1.134,1.593-1.087c0.03,0.018,0.829,0.04,0.863,0.066    c0.677,0,1.019,0.539,0.801,1.182l-1.73,4.614l-2.048,5.453l-0.004,0.005l-2.457,6.619l-1.298,3.435    c-0.218,0.642-1.007,1.193-1.684,1.193l-0.133,0.001c-0.245-0.259,0.199-2.354,0.938-5.139c0.472-1.773,1.061-3.823,1.668-5.858    c0.285-0.942,0.575-1.881,0.861-2.787c0.297-0.94,0.594-1.843,0.869-2.682C154.355,4.147,155.08,2.027,155.164,2.035z"/>   <path fill="#F59E47" d="M155.172,2.03c0.26-0.636,0.835-1.123,1.584-1.076c0.031,0.018,0.822,0.041,0.857,0.067    c0.67,0,1.009,0.535,0.793,1.172l-1.719,4.576l-2.034,5.407l-0.004,0.005l-2.439,6.563l-1.289,3.407    c-0.215,0.636-0.999,1.184-1.67,1.184l-0.132,0c-0.243-0.257,0.198-2.334,0.93-5.096c0.468-1.759,1.049-3.793,1.655-5.811    c0.281-0.935,0.571-1.866,0.854-2.765c0.295-0.932,0.59-1.828,0.863-2.66C154.367,4.125,155.087,2.022,155.172,2.03z"/>   <path fill="#F59E47" d="M155.18,2.024c0.258-0.631,0.83-1.113,1.574-1.066c0.031,0.019,0.816,0.041,0.852,0.068    c0.665,0,0.999,0.531,0.786,1.162l-1.707,4.537l-2.021,5.362l-0.004,0.005l-2.422,6.508l-1.28,3.378    c-0.214,0.631-0.992,1.174-1.656,1.174l-0.131,0.001c-0.241-0.256,0.196-2.315,0.923-5.054c0.463-1.745,1.043-3.76,1.642-5.762    c0.28-0.928,0.566-1.851,0.848-2.743c0.293-0.925,0.586-1.813,0.857-2.638C154.38,4.102,155.093,2.016,155.18,2.024z"/>   <path fill="#F59F47" d="M155.187,2.019c0.258-0.625,0.826-1.103,1.565-1.055c0.031,0.019,0.811,0.042,0.846,0.068    c0.659,0,0.99,0.526,0.779,1.152l-1.695,4.499L154.675,12l-0.004,0.005l-2.404,6.453l-1.271,3.349    c-0.212,0.626-0.984,1.164-1.644,1.164l-0.129,0c-0.239-0.253,0.195-2.296,0.915-5.011c0.46-1.73,1.035-3.729,1.628-5.714    c0.278-0.92,0.562-1.837,0.842-2.721c0.291-0.917,0.582-1.799,0.852-2.617C154.391,4.078,155.1,2.01,155.187,2.019z"/>   <path fill="#F59F47" d="M155.195,2.013c0.256-0.619,0.82-1.092,1.555-1.043c0.031,0.019,0.805,0.042,0.841,0.069    c0.653,0,0.98,0.522,0.771,1.143l-1.683,4.46l-1.992,5.271l-0.005,0.004l-2.387,6.397l-1.263,3.321    c-0.209,0.62-0.977,1.154-1.63,1.154h-0.128c-0.236-0.251,0.194-2.276,0.908-4.969c0.455-1.715,1.026-3.697,1.614-5.665    c0.275-0.913,0.558-1.822,0.836-2.699c0.288-0.91,0.577-1.785,0.845-2.596C154.402,4.055,155.106,2.005,155.195,2.013z"/>   <path fill="#F5A048" d="M155.202,2.008c0.256-0.614,0.816-1.081,1.546-1.032c0.032,0.019,0.799,0.042,0.836,0.069    c0.647,0,0.971,0.518,0.763,1.132L156.676,6.6l-1.979,5.226l-0.004,0.005l-2.369,6.341l-1.254,3.292    c-0.208,0.614-0.97,1.145-1.617,1.145l-0.127,0c-0.234-0.25,0.192-2.258,0.9-4.927c0.452-1.701,1.019-3.666,1.602-5.617    c0.273-0.906,0.554-1.807,0.829-2.677c0.286-0.902,0.573-1.77,0.839-2.575C154.413,4.031,155.113,2,155.202,2.008z"/>   <path fill="#F5A048" d="M155.21,2.002c0.255-0.608,0.812-1.071,1.536-1.021c0.033,0.02,0.793,0.043,0.83,0.07    c0.642,0,0.962,0.514,0.756,1.123l-1.659,4.384l-1.964,5.18l-0.005,0.004l-2.352,6.287l-1.245,3.264    c-0.206,0.609-0.963,1.135-1.604,1.135h-0.126c-0.231-0.249,0.191-2.239,0.893-4.885c0.448-1.687,1.006-3.636,1.588-5.569    c0.271-0.898,0.55-1.792,0.823-2.654c0.284-0.895,0.57-1.754,0.834-2.553C154.427,4.009,155.119,1.994,155.21,2.002z"/>   <path fill="#F5A148" d="M155.217,1.996c0.254-0.602,0.808-1.061,1.527-1.01c0.033,0.02,0.787,0.043,0.824,0.071    c0.636,0,0.952,0.509,0.748,1.113l-1.646,4.345l-1.951,5.136l-0.004,0.004l-2.334,6.231l-1.236,3.235    c-0.204,0.603-0.955,1.125-1.591,1.125l-0.125,0c-0.229-0.248,0.19-2.221,0.887-4.843c0.444-1.672,1.001-3.603,1.573-5.521    c0.27-0.89,0.546-1.778,0.817-2.633c0.282-0.888,0.565-1.74,0.827-2.532C154.437,3.984,155.126,1.988,155.217,1.996z"/>   <path fill="#F5A148" d="M155.225,1.991c0.253-0.597,0.803-1.051,1.518-1c0.033,0.02,0.782,0.044,0.819,0.072    c0.63,0,0.942,0.505,0.741,1.103l-1.636,4.307l-1.937,5.09l-0.004,0.004l-2.316,6.176l-1.229,3.207    c-0.202,0.598-0.947,1.115-1.577,1.115h-0.124c-0.227-0.246,0.189-2.201,0.879-4.8c0.44-1.658,0.992-3.572,1.561-5.472    c0.268-0.883,0.541-1.763,0.811-2.611c0.28-0.88,0.562-1.725,0.821-2.51C154.448,3.961,155.133,1.983,155.225,1.991z"/>   <path fill="#F5A149" d="M155.233,1.986c0.251-0.591,0.798-1.04,1.507-0.989c0.034,0.021,0.776,0.044,0.814,0.073    c0.624,0,0.934,0.5,0.732,1.093l-1.623,4.269l-1.922,5.044l-0.005,0.005l-2.299,6.12l-1.22,3.178    c-0.2,0.593-0.939,1.106-1.562,1.106l-0.123,0c-0.225-0.244,0.188-2.183,0.871-4.759c0.437-1.643,0.983-3.54,1.547-5.424    c0.266-0.876,0.537-1.748,0.805-2.589c0.277-0.873,0.558-1.711,0.815-2.489C154.462,3.94,155.14,1.978,155.233,1.986z"/>   <path fill="#F5A249" d="M155.24,1.98c0.25-0.586,0.794-1.03,1.498-0.979c0.034,0.021,0.771,0.045,0.809,0.074    c0.618,0,0.924,0.497,0.726,1.083l-1.611,4.229l-1.909,4.999l-0.004,0.005l-2.281,6.064l-1.211,3.15    c-0.198,0.586-0.932,1.096-1.551,1.096h-0.121c-0.222-0.242,0.187-2.164,0.864-4.716c0.433-1.628,0.971-3.509,1.533-5.375    c0.262-0.869,0.533-1.733,0.799-2.567c0.275-0.865,0.554-1.696,0.81-2.467C154.474,3.917,155.146,1.972,155.24,1.98z"/>   <path fill="#F5A249" d="M155.248,1.975c0.249-0.58,0.789-1.02,1.488-0.967c0.035,0.021,0.765,0.045,0.803,0.074    c0.612,0,0.914,0.492,0.718,1.073l-1.6,4.191l-1.894,4.954l-0.004,0.004l-2.265,6.01l-1.202,3.121    c-0.196,0.581-0.925,1.086-1.537,1.086l-0.12,0c-0.22-0.241,0.185-2.145,0.856-4.674c0.43-1.613,0.962-3.479,1.52-5.327    c0.26-0.862,0.529-1.718,0.793-2.545c0.273-0.858,0.549-1.682,0.803-2.446C154.484,3.892,155.153,1.966,155.248,1.975z"/>   <path fill="#F5A349" d="M155.256,1.969c0.248-0.574,0.784-1.009,1.479-0.956c0.035,0.021,0.759,0.045,0.799,0.075    c0.605,0,0.904,0.488,0.709,1.064l-1.588,4.153l-1.879,4.908l-0.005,0.004l-2.247,5.955l-1.193,3.093    c-0.194,0.575-0.917,1.076-1.523,1.076h-0.119c-0.217-0.239,0.184-2.126,0.85-4.632c0.425-1.599,0.953-3.447,1.506-5.279    c0.258-0.854,0.525-1.703,0.786-2.523c0.271-0.85,0.545-1.666,0.798-2.424C154.498,3.87,155.16,1.961,155.256,1.969z"/>   <path fill="#F6A34A" d="M155.264,1.964c0.247-0.568,0.779-0.998,1.47-0.945c0.035,0.021,0.753,0.046,0.792,0.076    c0.601,0,0.896,0.483,0.702,1.054l-1.575,4.114l-1.866,4.863l-0.005,0.004l-2.229,5.898l-1.185,3.064    c-0.192,0.57-0.909,1.067-1.511,1.067l-0.117,0c-0.216-0.238,0.182-2.107,0.842-4.59c0.421-1.584,0.944-3.416,1.492-5.23    c0.256-0.847,0.521-1.689,0.78-2.502c0.27-0.842,0.541-1.652,0.791-2.403C154.509,3.846,155.167,1.956,155.264,1.964z"/>   <path fill="#F6A44A" d="M155.271,1.958c0.246-0.563,0.774-0.988,1.46-0.935c0.035,0.021,0.746,0.046,0.786,0.077    c0.595,0,0.886,0.479,0.695,1.044l-1.563,4.076l-1.853,4.817l-0.004,0.004l-2.212,5.844l-1.176,3.036    c-0.19,0.564-0.903,1.057-1.497,1.057h-0.117c-0.213-0.236,0.182-2.088,0.834-4.548c0.418-1.57,0.938-3.384,1.48-5.183    c0.253-0.839,0.516-1.673,0.773-2.479c0.267-0.835,0.537-1.637,0.785-2.382C154.521,3.822,155.173,1.95,155.271,1.958z"/>   <path fill="#F6A44A" d="M155.278,1.953c0.245-0.557,0.771-0.978,1.451-0.923c0.036,0.021,0.74,0.047,0.78,0.078    c0.59,0,0.877,0.474,0.688,1.034l-1.551,4.038l-1.839,4.772l-0.005,0.004l-2.193,5.788l-1.167,3.007    c-0.188,0.559-0.896,1.047-1.484,1.047l-0.116,0c-0.21-0.235,0.181-2.07,0.828-4.506c0.414-1.555,0.927-3.353,1.465-5.134    c0.251-0.832,0.513-1.659,0.769-2.457c0.265-0.828,0.532-1.622,0.779-2.36C154.533,3.8,155.18,1.944,155.278,1.953z"/>   <path fill="#F6A54A" d="M155.287,1.947c0.243-0.551,0.766-0.967,1.44-0.913c0.036,0.022,0.735,0.048,0.775,0.079    c0.583,0,0.867,0.47,0.681,1.023l-1.541,4l-1.824,4.727l-0.004,0.004l-2.177,5.732l-1.158,2.979    c-0.187,0.553-0.888,1.038-1.47,1.038h-0.115c-0.208-0.233,0.179-2.051,0.819-4.463c0.41-1.541,0.923-3.32,1.453-5.085    c0.251-0.824,0.507-1.645,0.761-2.436c0.264-0.82,0.528-1.608,0.773-2.339C154.544,3.777,155.187,1.938,155.287,1.947z"/>   <path fill="#F6A54B" d="M155.294,1.942c0.243-0.546,0.761-0.958,1.432-0.902c0.037,0.022,0.729,0.049,0.771,0.079    c0.576,0,0.857,0.466,0.672,1.015l-1.527,3.961l-1.811,4.681l-0.005,0.005l-2.159,5.677l-1.148,2.95    c-0.186,0.548-0.881,1.027-1.458,1.027l-0.113,0.001c-0.206-0.232,0.177-2.032,0.812-4.422c0.406-1.526,0.91-3.29,1.438-5.038    c0.247-0.817,0.504-1.629,0.755-2.413c0.261-0.813,0.525-1.593,0.768-2.317C154.555,3.753,155.193,1.933,155.294,1.942z"/>   <path fill="#F6A64B" d="M155.302,1.937c0.242-0.54,0.757-0.947,1.423-0.891c0.037,0.022,0.723,0.048,0.764,0.08    c0.572,0,0.849,0.461,0.665,1.004l-1.517,3.922l-1.796,4.636l-0.004,0.004l-2.142,5.622l-1.141,2.921    c-0.184,0.542-0.873,1.019-1.444,1.019h-0.112c-0.203-0.23,0.176-2.013,0.805-4.379c0.402-1.512,0.906-3.257,1.426-4.989    c0.246-0.81,0.499-1.615,0.748-2.392c0.26-0.805,0.521-1.579,0.762-2.296C154.567,3.731,155.199,1.928,155.302,1.937z"/>   <path fill="#F6A64B" d="M155.31,1.932c0.241-0.535,0.752-0.938,1.413-0.881c0.037,0.022,0.717,0.05,0.759,0.081    c0.565,0,0.839,0.457,0.657,0.994l-1.504,3.884l-1.782,4.591l-0.005,0.004l-2.124,5.566l-1.132,2.894    c-0.182,0.536-0.865,1.008-1.431,1.008l-0.111,0.001c-0.201-0.229,0.175-1.994,0.798-4.338c0.398-1.497,0.896-3.225,1.412-4.94    c0.244-0.802,0.495-1.6,0.742-2.369c0.256-0.798,0.517-1.563,0.756-2.275C154.581,3.708,155.207,1.922,155.31,1.932z"/>   <path fill="#F6A74B" d="M155.317,1.926c0.239-0.528,0.747-0.926,1.402-0.869c0.038,0.022,0.712,0.049,0.754,0.082    c0.56,0,0.829,0.453,0.649,0.984l-1.492,3.845l-1.768,4.545l-0.004,0.005l-2.107,5.511l-1.123,2.864    c-0.18,0.531-0.857,0.999-1.417,0.999l-0.11,0c-0.199-0.227,0.173-1.976,0.789-4.295c0.396-1.482,0.885-3.195,1.399-4.893    c0.241-0.795,0.491-1.585,0.736-2.348c0.255-0.79,0.512-1.549,0.749-2.253C154.591,3.684,155.213,1.917,155.317,1.926z"/>   <path fill="#F6A74C" d="M155.325,1.921c0.239-0.524,0.742-0.916,1.394-0.858c0.037,0.022,0.705,0.05,0.748,0.082    c0.554,0,0.819,0.448,0.642,0.974l-1.48,3.807l-1.753,4.5l-0.006,0.004l-2.089,5.456l-1.114,2.836    c-0.178,0.525-0.851,0.988-1.404,0.988l-0.109,0c-0.195-0.226,0.173-1.956,0.783-4.253c0.392-1.467,0.877-3.163,1.386-4.844    c0.238-0.788,0.486-1.57,0.729-2.325c0.252-0.783,0.509-1.535,0.743-2.231C154.602,3.661,155.22,1.911,155.325,1.921z"/>   <path fill="#F6A84C" d="M155.333,1.915c0.237-0.518,0.737-0.906,1.384-0.848c0.038,0.023,0.699,0.051,0.742,0.083    c0.549,0,0.811,0.444,0.635,0.965l-1.469,3.769l-1.74,4.454l-0.004,0.004l-2.072,5.4l-1.105,2.808    c-0.176,0.521-0.843,0.979-1.391,0.979l-0.107,0c-0.194-0.224,0.17-1.938,0.774-4.211c0.388-1.453,0.868-3.132,1.372-4.796    c0.236-0.78,0.482-1.555,0.725-2.303c0.25-0.775,0.503-1.52,0.736-2.21C154.614,3.637,155.227,1.905,155.333,1.915z"/>   <path fill="#F6A84C" d="M155.34,1.909c0.237-0.512,0.734-0.895,1.375-0.836c0.039,0.022,0.693,0.051,0.737,0.083    c0.542,0,0.8,0.44,0.626,0.955l-1.456,3.73l-1.726,4.409l-0.005,0.004l-2.055,5.344l-1.097,2.779    c-0.174,0.515-0.835,0.97-1.377,0.97l-0.107,0c-0.191-0.223,0.17-1.918,0.769-4.168c0.384-1.438,0.859-3.101,1.358-4.748    c0.234-0.773,0.479-1.541,0.718-2.282c0.248-0.768,0.499-1.504,0.731-2.188C154.628,3.616,155.233,1.9,155.34,1.909z"/>   <path fill="#F6A94C" d="M155.348,1.904c0.236-0.507,0.729-0.885,1.365-0.826c0.039,0.023,0.688,0.051,0.732,0.084    c0.536,0,0.791,0.435,0.619,0.944L156.619,5.8l-1.712,4.363l-0.005,0.004l-2.037,5.289l-1.088,2.751    c-0.172,0.509-0.827,0.959-1.363,0.959l-0.106,0c-0.189-0.222,0.169-1.899,0.761-4.126c0.38-1.425,0.853-3.069,1.346-4.7    c0.231-0.766,0.474-1.526,0.711-2.26c0.246-0.76,0.495-1.49,0.726-2.167C154.639,3.592,155.24,1.895,155.348,1.904z"/>   <path fill="#F7A94D" d="M155.355,1.898c0.235-0.501,0.725-0.874,1.355-0.814c0.039,0.023,0.682,0.052,0.727,0.085    c0.531,0,0.781,0.431,0.611,0.935l-1.433,3.653l-1.697,4.318l-0.005,0.004l-2.02,5.233l-1.08,2.722    c-0.17,0.504-0.82,0.95-1.351,0.95l-0.104,0c-0.187-0.219,0.167-1.881,0.754-4.084c0.375-1.409,0.842-3.037,1.331-4.651    c0.229-0.757,0.47-1.51,0.705-2.237c0.244-0.753,0.491-1.475,0.72-2.146C154.651,3.568,155.246,1.889,155.355,1.898z"/>   <path fill="#F7AA4D" d="M155.363,1.894c0.234-0.496,0.719-0.864,1.346-0.804c0.04,0.023,0.676,0.052,0.721,0.086    c0.525,0,0.772,0.426,0.604,0.925l-1.421,3.614l-1.684,4.273l-0.005,0.004l-2.001,5.178l-1.072,2.693    c-0.168,0.498-0.812,0.94-1.337,0.94l-0.104,0c-0.185-0.218,0.166-1.862,0.746-4.042c0.372-1.395,0.834-3.006,1.318-4.603    c0.228-0.75,0.465-1.496,0.698-2.215c0.242-0.746,0.487-1.461,0.713-2.125C154.66,3.545,155.253,1.883,155.363,1.894z"/>   <path fill="#F7AA4D" d="M155.371,1.888c0.232-0.489,0.715-0.854,1.336-0.792c0.041,0.024,0.67,0.053,0.716,0.086    c0.519,0,0.763,0.422,0.597,0.915l-1.409,3.577L154.941,9.9l-0.006,0.004l-1.984,5.123l-1.062,2.665    c-0.166,0.493-0.805,0.931-1.323,0.931h-0.103c-0.183-0.216,0.165-1.843,0.738-4c0.369-1.38,0.825-2.974,1.305-4.554    c0.226-0.743,0.462-1.481,0.693-2.194c0.239-0.738,0.482-1.445,0.707-2.103C154.674,3.522,155.26,1.878,155.371,1.888z"/>   <path fill="#F7AB4D" d="M155.378,1.883c0.232-0.484,0.711-0.844,1.327-0.782c0.041,0.024,0.665,0.053,0.711,0.088    c0.513,0,0.753,0.417,0.588,0.905l-1.396,3.538l-1.656,4.182l-0.004,0.004l-1.967,5.067l-1.055,2.636    c-0.164,0.487-0.797,0.92-1.31,0.92l-0.102,0.001c-0.18-0.215,0.163-1.824,0.731-3.958c0.364-1.366,0.816-2.943,1.291-4.506    c0.224-0.736,0.457-1.467,0.686-2.172c0.238-0.73,0.479-1.431,0.702-2.082C154.686,3.499,155.267,1.873,155.378,1.883z"/>   <path fill="#F7AB4E" d="M155.386,1.877c0.231-0.479,0.706-0.833,1.318-0.771c0.041,0.024,0.658,0.054,0.704,0.088    c0.507,0,0.744,0.413,0.581,0.895l-1.385,3.5l-1.642,4.137l-0.005,0.004l-1.949,5.012l-1.045,2.608    c-0.163,0.481-0.79,0.91-1.298,0.91l-0.1,0.001c-0.178-0.213,0.162-1.805,0.724-3.915c0.361-1.352,0.812-2.91,1.278-4.458    c0.223-0.728,0.452-1.452,0.68-2.15c0.235-0.723,0.475-1.417,0.695-2.06C154.697,3.475,155.273,1.867,155.386,1.877z"/>   <path fill="#F7AC4E" d="M155.394,1.871c0.23-0.473,0.701-0.822,1.308-0.76c0.042,0.024,0.653,0.055,0.699,0.089    c0.502,0,0.735,0.409,0.574,0.886l-1.373,3.461l-1.628,4.091l-0.005,0.004l-1.932,4.957l-1.036,2.58    c-0.161,0.476-0.782,0.9-1.284,0.9l-0.099,0.001c-0.176-0.212,0.16-1.786,0.716-3.874c0.357-1.337,0.799-2.881,1.265-4.41    c0.22-0.721,0.448-1.437,0.674-2.128c0.233-0.716,0.471-1.401,0.689-2.039C154.709,3.452,155.28,1.861,155.394,1.871z"/>   <path fill="#F7AC4E" d="M155.401,1.866c0.229-0.467,0.696-0.812,1.298-0.75c0.043,0.025,0.647,0.055,0.694,0.09    c0.496,0,0.725,0.405,0.565,0.875l-1.36,3.423l-1.613,4.045l-0.005,0.004l-1.915,4.901l-1.027,2.551    c-0.159,0.47-0.774,0.891-1.271,0.891l-0.098,0.001c-0.174-0.21,0.159-1.768,0.709-3.831c0.353-1.322,0.79-2.849,1.25-4.361    c0.217-0.714,0.445-1.422,0.668-2.105c0.231-0.708,0.467-1.387,0.684-2.018C154.721,3.429,155.286,1.856,155.401,1.866z"/>   <path fill="#F7AD4E" d="M155.409,1.86c0.228-0.461,0.692-0.802,1.289-0.738c0.042,0.025,0.641,0.056,0.688,0.091    c0.489,0,0.715,0.4,0.558,0.866l-1.349,3.384l-1.6,4l-0.005,0.004l-1.897,4.845l-1.019,2.523    c-0.157,0.465-0.768,0.881-1.257,0.881l-0.097,0.001c-0.171-0.209,0.158-1.749,0.701-3.789c0.35-1.308,0.781-2.818,1.237-4.313    c0.216-0.706,0.44-1.408,0.661-2.084c0.229-0.7,0.463-1.372,0.678-1.996C154.731,3.406,155.293,1.85,155.409,1.86z"/>   <path fill="#F7AD4F" d="M155.416,1.855c0.228-0.456,0.688-0.792,1.28-0.728c0.042,0.025,0.635,0.055,0.683,0.091    c0.484,0,0.706,0.396,0.551,0.856l-1.337,3.346l-1.586,3.955l-0.005,0.004l-1.879,4.79l-1.01,2.494    c-0.156,0.459-0.761,0.871-1.245,0.871l-0.095,0.001c-0.169-0.207,0.156-1.729,0.694-3.747c0.345-1.293,0.773-2.786,1.224-4.264    c0.213-0.698,0.436-1.393,0.654-2.062c0.228-0.693,0.459-1.357,0.672-1.975C154.743,3.383,155.3,1.845,155.416,1.855z"/>   <path fill="#F7AE4F" d="M155.424,1.85c0.227-0.45,0.684-0.781,1.271-0.717c0.043,0.025,0.63,0.057,0.677,0.093    c0.479,0,0.697,0.392,0.544,0.846l-1.325,3.308l-1.572,3.909l-0.004,0.004l-1.862,4.735l-1.001,2.465    c-0.153,0.454-0.753,0.862-1.231,0.862l-0.094,0.001c-0.167-0.205,0.155-1.71,0.687-3.705c0.342-1.278,0.764-2.755,1.21-4.217    c0.211-0.691,0.433-1.378,0.649-2.04c0.225-0.686,0.454-1.343,0.665-1.952C154.756,3.359,155.307,1.839,155.424,1.85z"/>   <path fill="#F7AE4F" d="M155.432,1.845c0.225-0.445,0.679-0.771,1.262-0.706c0.043,0.025,0.623,0.057,0.671,0.093    c0.472,0,0.687,0.388,0.535,0.836l-1.313,3.269l-1.557,3.864l-0.005,0.004l-1.845,4.679l-0.992,2.437    c-0.151,0.448-0.745,0.852-1.218,0.852l-0.093,0.001c-0.164-0.204,0.154-1.691,0.68-3.663c0.338-1.264,0.755-2.723,1.196-4.168    c0.209-0.684,0.428-1.363,0.643-2.018c0.223-0.678,0.45-1.328,0.659-1.932C154.767,3.336,155.313,1.833,155.432,1.845z"/>   <path fill="#F7AF4F" d="M155.439,1.839c0.225-0.439,0.674-0.761,1.251-0.694c0.044,0.025,0.618,0.057,0.667,0.094    c0.466,0,0.678,0.382,0.527,0.825l-1.301,3.23l-1.544,3.819l-0.005,0.004l-1.827,4.624l-0.983,2.408    c-0.149,0.443-0.738,0.842-1.204,0.842l-0.093,0.001c-0.161-0.203,0.153-1.673,0.672-3.62c0.335-1.25,0.748-2.691,1.185-4.12    c0.206-0.676,0.423-1.348,0.636-1.996c0.221-0.671,0.447-1.313,0.654-1.91C154.78,3.314,155.319,1.828,155.439,1.839z"/>   <path fill="#F8AF50" d="M155.447,1.833c0.223-0.433,0.669-0.75,1.241-0.684c0.044,0.026,0.612,0.058,0.661,0.095    c0.461,0,0.668,0.379,0.521,0.816l-1.29,3.192l-1.529,3.773l-0.005,0.004l-1.809,4.569l-0.976,2.379    c-0.147,0.437-0.73,0.833-1.191,0.833l-0.09,0.001c-0.16-0.201,0.151-1.654,0.664-3.578c0.331-1.234,0.738-2.661,1.17-4.071    c0.205-0.669,0.419-1.334,0.63-1.974c0.22-0.664,0.442-1.299,0.648-1.889C154.793,3.291,155.326,1.823,155.447,1.833z"/>   <path fill="#F8B050" d="M155.455,1.828c0.222-0.428,0.664-0.74,1.232-0.673c0.044,0.026,0.605,0.058,0.655,0.095    c0.454,0,0.658,0.375,0.513,0.807l-1.277,3.154l-1.516,3.728l-0.005,0.004l-1.792,4.513l-0.967,2.352    c-0.146,0.432-0.723,0.823-1.178,0.823l-0.09,0.001c-0.157-0.2,0.15-1.635,0.658-3.536c0.326-1.221,0.73-2.629,1.156-4.023    c0.202-0.662,0.415-1.319,0.623-1.952c0.217-0.656,0.438-1.284,0.642-1.867C154.803,3.267,155.333,1.817,155.455,1.828z"/>   <path fill="#F8B050" d="M155.463,1.822c0.221-0.422,0.659-0.729,1.223-0.662c0.044,0.027,0.6,0.059,0.649,0.096    c0.449,0,0.649,0.37,0.506,0.796l-1.266,3.115l-1.502,3.683l-0.005,0.004l-1.774,4.458l-0.958,2.323    c-0.144,0.426-0.715,0.813-1.164,0.813l-0.088,0.001c-0.155-0.197,0.148-1.616,0.649-3.494c0.322-1.206,0.723-2.597,1.144-3.975    c0.2-0.654,0.41-1.304,0.617-1.93c0.215-0.649,0.434-1.27,0.635-1.847C154.812,3.243,155.34,1.812,155.463,1.822z"/>   <path fill="#F8B150" d="M155.471,1.817c0.22-0.417,0.654-0.72,1.213-0.651c0.045,0.026,0.594,0.059,0.645,0.097    c0.443,0,0.64,0.366,0.497,0.787l-1.254,3.077l-1.487,3.637l-0.004,0.005l-1.758,4.402l-0.948,2.294    c-0.143,0.42-0.709,0.803-1.151,0.803l-0.088,0.001c-0.152-0.196,0.148-1.597,0.643-3.451c0.319-1.191,0.713-2.566,1.13-3.927    c0.198-0.647,0.406-1.289,0.611-1.908c0.212-0.641,0.431-1.255,0.63-1.824C154.827,3.221,155.347,1.806,155.471,1.817z"/>   <path fill="#F8B151" d="M155.479,1.812c0.219-0.411,0.65-0.709,1.203-0.64c0.045,0.027,0.588,0.059,0.639,0.098    c0.438,0,0.631,0.362,0.49,0.777l-1.242,3.038l-1.473,3.592L155.09,8.68l-1.738,4.347l-0.94,2.266    c-0.141,0.415-0.701,0.793-1.138,0.793l-0.087,0.001c-0.15-0.195,0.146-1.578,0.636-3.41c0.314-1.177,0.704-2.534,1.115-3.878    c0.195-0.64,0.402-1.274,0.605-1.886c0.211-0.633,0.426-1.24,0.624-1.803C154.84,3.197,155.354,1.8,155.479,1.812z"/>   <path fill="#F8B251" d="M155.486,1.807c0.217-0.405,0.646-0.699,1.193-0.63c0.046,0.027,0.582,0.06,0.634,0.099    c0.431,0,0.621,0.356,0.482,0.767l-1.23,3l-1.459,3.546l-0.005,0.004l-1.723,4.292l-0.931,2.237    c-0.139,0.409-0.693,0.783-1.125,0.783l-0.085,0.001c-0.147-0.193,0.146-1.56,0.628-3.367c0.312-1.162,0.695-2.502,1.103-3.83    c0.194-0.632,0.398-1.26,0.6-1.865c0.207-0.626,0.421-1.226,0.617-1.781C154.852,3.175,155.359,1.795,155.486,1.807z"/>   <path fill="#F8B251" d="M155.494,1.801c0.217-0.399,0.641-0.688,1.184-0.619c0.046,0.027,0.576,0.061,0.628,0.099    c0.426,0,0.611,0.353,0.476,0.757L156.562,5l-1.445,3.501l-0.005,0.004l-1.704,4.235l-0.923,2.209    c-0.137,0.404-0.686,0.774-1.111,0.774l-0.084,0.001c-0.146-0.192,0.145-1.541,0.62-3.325c0.309-1.148,0.688-2.471,1.09-3.782    c0.191-0.625,0.394-1.245,0.593-1.842c0.206-0.619,0.417-1.21,0.611-1.76C154.863,3.151,155.367,1.79,155.494,1.801z"/>   <path fill="#F8B351" d="M155.501,1.795c0.216-0.394,0.637-0.678,1.175-0.607c0.047,0.027,0.57,0.061,0.623,0.1    c0.42,0,0.602,0.349,0.467,0.748l-1.205,2.923l-1.432,3.455l-0.006,0.004l-1.687,4.181l-0.914,2.181    c-0.135,0.398-0.679,0.764-1.099,0.764l-0.082,0.001c-0.144-0.189,0.143-1.521,0.613-3.282c0.304-1.134,0.679-2.44,1.076-3.734    c0.189-0.617,0.389-1.229,0.586-1.82c0.204-0.611,0.413-1.196,0.605-1.739C154.874,3.128,155.373,1.784,155.501,1.795z"/>   <path fill="#F8B352" d="M155.509,1.79c0.215-0.388,0.632-0.667,1.165-0.597c0.047,0.028,0.564,0.062,0.617,0.101    c0.414,0,0.593,0.344,0.46,0.737l-1.194,2.884l-1.417,3.41l-0.005,0.004l-1.67,4.125l-0.905,2.152    c-0.133,0.393-0.671,0.755-1.085,0.755l-0.081,0.001c-0.142-0.188,0.142-1.503,0.605-3.241c0.3-1.118,0.669-2.409,1.062-3.685    c0.188-0.61,0.385-1.215,0.58-1.798c0.202-0.604,0.409-1.182,0.6-1.717C154.886,3.105,155.38,1.778,155.509,1.79z"/>   <path fill="#F8B452" d="M155.517,1.784c0.214-0.382,0.628-0.657,1.155-0.586c0.048,0.028,0.56,0.062,0.612,0.102    c0.408,0,0.583,0.34,0.452,0.728l-1.183,2.846l-1.403,3.365l-0.005,0.004l-1.652,4.07l-0.896,2.123    c-0.131,0.387-0.664,0.744-1.072,0.744l-0.08,0.001c-0.139-0.187,0.14-1.483,0.598-3.198c0.297-1.104,0.661-2.377,1.049-3.637    c0.186-0.604,0.382-1.201,0.574-1.776c0.2-0.597,0.405-1.167,0.594-1.696C154.897,3.082,155.387,1.773,155.517,1.784z"/>   <path fill="#F8B452" d="M155.524,1.779c0.212-0.377,0.622-0.647,1.146-0.575c0.048,0.028,0.554,0.062,0.606,0.102    c0.402,0,0.573,0.335,0.444,0.717l-1.17,2.808l-1.389,3.319l-0.006,0.004l-1.635,4.015l-0.887,2.095    c-0.129,0.382-0.656,0.735-1.059,0.735L151.496,15c-0.136-0.185,0.14-1.465,0.592-3.157c0.292-1.089,0.652-2.345,1.035-3.588    c0.184-0.595,0.377-1.186,0.568-1.755c0.197-0.589,0.4-1.152,0.587-1.674C154.909,3.059,155.394,1.767,155.524,1.779z"/>   <path fill="#F8B552" d="M155.532,1.773c0.211-0.371,0.618-0.637,1.136-0.564c0.049,0.029,0.548,0.063,0.602,0.104    c0.396,0,0.564,0.331,0.437,0.708l-1.158,2.769l-1.375,3.274l-0.005,0.004l-1.617,3.959l-0.879,2.066    c-0.127,0.376-0.648,0.725-1.045,0.725l-0.078,0.001c-0.135-0.184,0.138-1.446,0.583-3.114c0.289-1.075,0.645-2.314,1.022-3.54    c0.182-0.588,0.373-1.171,0.561-1.732c0.196-0.582,0.397-1.138,0.582-1.653C154.92,3.035,155.4,1.762,155.532,1.773z"/>   <path fill="#F9B553" d="M155.539,1.769c0.211-0.366,0.614-0.626,1.128-0.554c0.048,0.029,0.541,0.063,0.595,0.104    c0.391,0,0.555,0.327,0.43,0.698l-1.146,2.73l-1.361,3.229l-0.005,0.004l-1.6,3.904l-0.87,2.038    c-0.125,0.371-0.641,0.715-1.031,0.715l-0.077,0.001c-0.132-0.182,0.136-1.427,0.576-3.072c0.284-1.061,0.635-2.283,1.008-3.492    c0.18-0.581,0.369-1.156,0.556-1.711c0.193-0.574,0.394-1.122,0.576-1.631C154.934,3.013,155.406,1.756,155.539,1.769z"/>   <path fill="#F9B653" d="M155.547,1.763c0.209-0.36,0.609-0.616,1.118-0.542c0.048,0.028,0.535,0.063,0.59,0.104    c0.385,0,0.546,0.322,0.422,0.688l-1.135,2.692l-1.347,3.183l-0.006,0.005l-1.582,3.848l-0.861,2.009    c-0.123,0.365-0.633,0.706-1.018,0.706l-0.076,0.001c-0.13-0.181,0.135-1.408,0.568-3.03c0.281-1.045,0.627-2.251,0.995-3.444    c0.177-0.573,0.364-1.141,0.549-1.688c0.191-0.566,0.389-1.108,0.569-1.61C154.943,2.989,155.413,1.75,155.547,1.763z"/>   <path fill="#F9B653" d="M155.555,1.757c0.209-0.354,0.604-0.605,1.108-0.531c0.049,0.029,0.529,0.064,0.584,0.105    c0.379,0,0.536,0.318,0.415,0.678l-1.123,2.654l-1.333,3.138l-0.005,0.004l-1.564,3.793l-0.854,1.98    c-0.121,0.359-0.625,0.696-1.005,0.696l-0.075,0.001c-0.127-0.179,0.135-1.39,0.562-2.988c0.276-1.031,0.617-2.22,0.98-3.396    c0.175-0.565,0.361-1.126,0.543-1.667c0.189-0.559,0.386-1.093,0.564-1.588C154.957,2.967,155.42,1.745,155.555,1.757z"/>   <path fill="#F9B754" d="M155.562,1.752c0.207-0.349,0.6-0.596,1.099-0.521c0.049,0.029,0.523,0.064,0.579,0.105    c0.373,0,0.526,0.314,0.406,0.668l-1.11,2.615l-1.319,3.092l-0.005,0.004l-1.547,3.737l-0.845,1.953    c-0.119,0.354-0.618,0.686-0.991,0.686l-0.073,0.001c-0.125-0.178,0.132-1.371,0.554-2.945c0.273-1.017,0.609-2.188,0.968-3.348    c0.173-0.558,0.355-1.111,0.536-1.645c0.188-0.552,0.381-1.079,0.558-1.567C154.967,2.942,155.427,1.74,155.562,1.752z"/>   <path fill="#F9B754" d="M155.57,1.746c0.206-0.343,0.595-0.584,1.089-0.509c0.05,0.029,0.519,0.065,0.573,0.107    c0.368,0,0.518,0.31,0.399,0.658l-1.099,2.576l-1.305,3.047l-0.006,0.004l-1.529,3.682l-0.835,1.924    c-0.118,0.349-0.611,0.676-0.979,0.676l-0.073,0.001c-0.122-0.175,0.132-1.352,0.547-2.903c0.27-1.001,0.602-2.157,0.955-3.299    c0.171-0.551,0.352-1.097,0.529-1.622c0.186-0.544,0.378-1.064,0.553-1.546C154.98,2.92,155.434,1.734,155.57,1.746z"/>   <path fill="#F9B854" d="M155.578,1.741c0.205-0.338,0.59-0.575,1.079-0.499c0.05,0.029,0.513,0.065,0.568,0.107    c0.361,0,0.507,0.305,0.392,0.648l-1.088,2.539l-1.29,3.001l-0.005,0.004l-1.513,3.626l-0.826,1.896    c-0.116,0.343-0.604,0.667-0.966,0.667l-0.07,0.001c-0.121-0.174,0.129-1.333,0.539-2.861c0.266-0.987,0.592-2.125,0.94-3.25    c0.168-0.543,0.348-1.083,0.524-1.601c0.183-0.536,0.372-1.048,0.546-1.524C154.991,2.897,155.439,1.729,155.578,1.741z"/>   <path fill="#F9B854" d="M155.585,1.735c0.205-0.332,0.587-0.564,1.071-0.488c0.05,0.03,0.506,0.066,0.562,0.108    c0.355,0,0.497,0.301,0.383,0.638l-1.074,2.5l-1.277,2.957l-0.005,0.003l-1.495,3.571l-0.817,1.867    c-0.114,0.337-0.597,0.656-0.952,0.656l-0.07,0.001c-0.117-0.172,0.129-1.313,0.532-2.819c0.262-0.973,0.584-2.093,0.928-3.202    c0.167-0.537,0.343-1.067,0.518-1.579c0.181-0.529,0.368-1.034,0.54-1.503C155.004,2.874,155.446,1.723,155.585,1.735z"/>   <path fill="#F9B855" d="M155.593,1.73c0.204-0.326,0.581-0.554,1.061-0.478c0.051,0.03,0.501,0.066,0.558,0.109    c0.35,0,0.488,0.296,0.377,0.629l-1.063,2.461l-1.263,2.911l-0.006,0.004l-1.477,3.516l-0.81,1.838    c-0.112,0.332-0.589,0.647-0.938,0.647l-0.069,0.001c-0.115-0.172,0.128-1.295,0.524-2.777c0.258-0.958,0.575-2.062,0.914-3.153    c0.164-0.529,0.34-1.053,0.512-1.557c0.179-0.522,0.364-1.02,0.534-1.481C155.017,2.851,155.453,1.717,155.593,1.73z"/>   <path fill="#F9B955" d="M155.601,1.725c0.202-0.32,0.577-0.543,1.052-0.466c0.051,0.03,0.494,0.067,0.551,0.11    c0.344,0,0.479,0.292,0.369,0.619l-1.051,2.423l-1.249,2.865l-0.006,0.004l-1.46,3.46l-0.799,1.81    c-0.111,0.326-0.582,0.637-0.926,0.637l-0.068,0.001c-0.113-0.17,0.126-1.275,0.518-2.734c0.254-0.944,0.566-2.031,0.9-3.105    c0.162-0.521,0.335-1.038,0.505-1.535c0.177-0.514,0.36-1.004,0.528-1.46C155.026,2.827,155.46,1.712,155.601,1.725z"/>   <path fill="#F9B955" d="M155.608,1.719c0.202-0.314,0.572-0.532,1.042-0.455c0.051,0.031,0.488,0.067,0.546,0.111    c0.338,0,0.47,0.287,0.36,0.608l-1.038,2.385l-1.235,2.82l-0.006,0.004l-1.441,3.404l-0.791,1.781    c-0.109,0.321-0.574,0.628-0.912,0.628l-0.067,0.001c-0.11-0.168,0.125-1.258,0.51-2.693c0.251-0.929,0.559-1.999,0.888-3.057    c0.16-0.514,0.33-1.023,0.498-1.513c0.175-0.507,0.356-0.991,0.522-1.439C155.038,2.804,155.467,1.707,155.608,1.719z"/>   <path fill="#F9BA55" d="M155.616,1.713c0.2-0.309,0.567-0.522,1.032-0.444c0.052,0.031,0.482,0.068,0.541,0.111    c0.332,0,0.46,0.283,0.354,0.599l-1.028,2.347l-1.22,2.774l-0.006,0.004l-1.425,3.35l-0.782,1.752    c-0.107,0.315-0.566,0.618-0.898,0.618l-0.066,0.001c-0.108-0.166,0.124-1.238,0.503-2.65c0.246-0.915,0.55-1.967,0.874-3.009    c0.157-0.506,0.326-1.008,0.492-1.491c0.172-0.5,0.352-0.976,0.516-1.417C155.05,2.78,155.473,1.701,155.616,1.713z"/>   <path fill="#F9BA56" d="M155.623,1.708c0.2-0.303,0.563-0.512,1.023-0.434c0.052,0.031,0.477,0.068,0.535,0.112    c0.326,0,0.451,0.279,0.346,0.59l-1.016,2.308l-1.206,2.729L155.3,7.017l-1.407,3.293l-0.773,1.725    c-0.105,0.31-0.56,0.608-0.886,0.608l-0.064,0.001c-0.106-0.165,0.122-1.219,0.495-2.608c0.243-0.9,0.541-1.936,0.86-2.96    c0.155-0.499,0.321-0.993,0.486-1.469c0.17-0.492,0.348-0.961,0.51-1.396C155.063,2.758,155.48,1.695,155.623,1.708z"/>   <path fill="#FABB56" d="M155.631,1.703c0.199-0.297,0.559-0.502,1.014-0.422c0.053,0.031,0.471,0.069,0.529,0.113    c0.321,0,0.441,0.274,0.339,0.579l-1.003,2.27l-1.193,2.684l-0.005,0.004l-1.391,3.238l-0.765,1.695    c-0.104,0.305-0.552,0.599-0.872,0.599l-0.063,0.001c-0.104-0.164,0.121-1.2,0.487-2.566c0.239-0.885,0.532-1.905,0.847-2.913    c0.153-0.492,0.318-0.979,0.48-1.447c0.168-0.483,0.344-0.946,0.504-1.374C155.073,2.734,155.486,1.69,155.631,1.703z"/>   <path fill="#FABB56" d="M155.639,1.697c0.198-0.292,0.554-0.491,1.004-0.411c0.053,0.031,0.465,0.068,0.524,0.113    c0.315,0,0.432,0.271,0.331,0.569L156.506,4.2l-1.179,2.638l-0.005,0.004l-1.372,3.184l-0.757,1.667    c-0.102,0.299-0.544,0.588-0.858,0.588l-0.063,0.001c-0.101-0.162,0.12-1.182,0.48-2.524c0.236-0.871,0.523-1.874,0.834-2.864    c0.151-0.484,0.313-0.963,0.474-1.425c0.166-0.477,0.34-0.931,0.498-1.353C155.086,2.711,155.493,1.685,155.639,1.697z"/>   <path fill="#FABC56" d="M155.646,1.692c0.196-0.287,0.549-0.481,0.994-0.401c0.053,0.032,0.459,0.07,0.52,0.115    c0.309,0,0.422,0.266,0.322,0.56l-0.979,2.192l-1.165,2.593l-0.006,0.004l-1.354,3.128l-0.748,1.639    c-0.099,0.293-0.536,0.579-0.846,0.579l-0.061,0.001c-0.1-0.16,0.118-1.163,0.473-2.481c0.231-0.856,0.516-1.842,0.82-2.816    c0.149-0.477,0.309-0.949,0.467-1.403c0.164-0.469,0.335-0.917,0.492-1.332C155.098,2.688,155.5,1.679,155.646,1.692z"/>   <path fill="#FABC57" d="M155.654,1.687c0.195-0.281,0.565-0.545,0.984-0.39c0.059,0.021,0.453,0.07,0.514,0.115    c0.303,0,0.413,0.261,0.315,0.549L156.5,4.115l-1.15,2.548l-0.006,0.004l-1.337,3.072l-0.739,1.61    c-0.097,0.287-0.529,0.569-0.832,0.569l-0.06,0.001c-0.097-0.159,0.117-1.144,0.465-2.44c0.228-0.842,0.507-1.81,0.807-2.767    c0.147-0.47,0.306-0.934,0.462-1.381c0.161-0.462,0.331-0.901,0.486-1.31C155.11,2.666,155.507,1.673,155.654,1.687z"/>   <path fill="#FABD57" d="M155.662,1.681c0.194-0.274,0.56-0.533,0.975-0.378c0.06,0.022,0.448,0.07,0.509,0.116    c0.297,0,0.403,0.257,0.308,0.54l-0.956,2.116l-1.136,2.501l-0.006,0.004l-1.32,3.017l-0.73,1.582    c-0.095,0.282-0.521,0.559-0.818,0.559l-0.059,0.001c-0.095-0.157,0.115-1.125,0.458-2.397c0.224-0.827,0.498-1.779,0.793-2.719    c0.146-0.462,0.301-0.919,0.455-1.359c0.159-0.454,0.327-0.887,0.479-1.289C155.118,2.641,155.514,1.668,155.662,1.681z"/>   <path fill="#FABD57" d="M155.67,1.675c0.193-0.269,0.535-0.45,0.966-0.368c0.054,0.032,0.441,0.071,0.502,0.117    c0.292,0,0.394,0.253,0.301,0.53l-0.944,2.077l-1.122,2.457l-0.006,0.004l-1.302,2.961l-0.723,1.553    c-0.093,0.276-0.514,0.549-0.805,0.549l-0.059,0.001c-0.092-0.156,0.115-1.106,0.451-2.355c0.221-0.812,0.488-1.748,0.779-2.67    c0.144-0.455,0.297-0.905,0.449-1.337c0.157-0.447,0.323-0.873,0.475-1.268C155.134,2.62,155.52,1.662,155.67,1.675z"/>   <path fill="#FABE57" d="M155.678,1.67c0.191-0.264,0.551-0.511,0.955-0.357c0.06,0.022,0.437,0.072,0.498,0.118    c0.285,0,0.384,0.249,0.292,0.52l-0.932,2.039l-1.108,2.412l-0.006,0.003l-1.284,2.906l-0.714,1.524    c-0.091,0.271-0.506,0.54-0.791,0.54l-0.058,0.001c-0.089-0.154,0.114-1.087,0.443-2.313c0.217-0.798,0.48-1.716,0.767-2.623    c0.141-0.447,0.293-0.89,0.442-1.315c0.155-0.439,0.319-0.858,0.468-1.246C155.144,2.595,155.527,1.657,155.678,1.67z"/>   <path fill="#FABE58" d="M155.685,1.665c0.191-0.258,0.546-0.499,0.947-0.346c0.06,0.022,0.43,0.072,0.491,0.118    c0.28,0,0.375,0.245,0.285,0.511l-0.92,2l-1.094,2.366l-0.006,0.003l-1.268,2.851l-0.704,1.497    c-0.09,0.266-0.499,0.529-0.779,0.529l-0.056,0.001c-0.087-0.152,0.112-1.068,0.437-2.271c0.213-0.784,0.473-1.685,0.753-2.574    c0.139-0.439,0.288-0.875,0.437-1.293c0.152-0.432,0.314-0.843,0.462-1.225C155.156,2.572,155.533,1.651,155.685,1.665z"/>   <path fill="#FABF58" d="M155.692,1.659c0.19-0.252,0.542-0.49,0.938-0.335c0.06,0.023,0.424,0.073,0.486,0.12    c0.273,0,0.365,0.24,0.277,0.5l-0.908,1.961l-1.08,2.321l-0.006,0.004l-1.25,2.795l-0.695,1.468    c-0.088,0.26-0.491,0.521-0.766,0.521l-0.054,0.001c-0.086-0.151,0.11-1.05,0.428-2.229c0.209-0.769,0.463-1.653,0.739-2.526    c0.137-0.433,0.284-0.86,0.431-1.271c0.15-0.425,0.311-0.828,0.456-1.203C155.168,2.55,155.54,1.646,155.692,1.659z"/>   <path fill="#FABF58" d="M155.7,1.654c0.189-0.247,0.536-0.477,0.928-0.325c0.061,0.023,0.418,0.073,0.48,0.12    c0.269,0,0.356,0.235,0.271,0.49l-0.896,1.924l-1.066,2.275l-0.006,0.003l-1.232,2.74l-0.687,1.438    c-0.086,0.255-0.483,0.511-0.752,0.511l-0.054,0.001c-0.082-0.149,0.109-1.03,0.422-2.187c0.205-0.754,0.455-1.621,0.726-2.478    c0.134-0.425,0.28-0.845,0.424-1.25c0.149-0.417,0.307-0.813,0.45-1.181C155.18,2.526,155.547,1.64,155.7,1.654z"/>   <path fill="#FAC058" d="M155.708,1.648c0.188-0.241,0.533-0.465,0.918-0.314c0.061,0.024,0.413,0.074,0.476,0.121    c0.262,0,0.347,0.231,0.263,0.48l-0.885,1.885l-1.053,2.23l-0.005,0.003l-1.215,2.685l-0.679,1.411    c-0.084,0.249-0.477,0.501-0.738,0.501l-0.053,0.001c-0.08-0.148,0.108-1.012,0.414-2.145c0.201-0.74,0.447-1.589,0.713-2.43    c0.132-0.417,0.275-0.83,0.417-1.227c0.146-0.41,0.303-0.799,0.444-1.16C155.191,2.503,155.554,1.635,155.708,1.648z"/>   <path fill="#FAC059" d="M155.716,1.643c0.187-0.235,0.527-0.452,0.908-0.302c0.062,0.024,0.407,0.074,0.47,0.122    c0.257,0,0.338,0.227,0.255,0.47l-0.872,1.847l-1.038,2.184l-0.006,0.004l-1.197,2.628l-0.67,1.382    c-0.082,0.244-0.469,0.491-0.726,0.491l-0.051,0.001c-0.078-0.146,0.107-0.992,0.406-2.102c0.197-0.726,0.438-1.559,0.699-2.381    c0.13-0.411,0.271-0.816,0.411-1.206c0.146-0.402,0.299-0.784,0.438-1.139C155.203,2.48,155.561,1.629,155.716,1.643z"/>   <path fill="#FBC159" d="M155.724,1.637c0.187-0.229,0.521-0.438,0.898-0.292c0.062,0.024,0.4,0.074,0.465,0.123    c0.251,0,0.327,0.222,0.247,0.46l-0.86,1.808l-1.024,2.139l-0.006,0.004l-1.18,2.573l-0.661,1.353    c-0.08,0.238-0.461,0.481-0.712,0.481l-0.05,0.001c-0.075-0.145,0.105-0.974,0.399-2.06c0.193-0.711,0.43-1.527,0.686-2.333    c0.128-0.402,0.267-0.801,0.404-1.184c0.143-0.395,0.295-0.77,0.433-1.117C155.214,2.457,155.566,1.624,155.724,1.637z"/>   <path fill="#FBC159" d="M155.73,1.632c0.186-0.224,0.517-0.428,0.89-0.281c0.062,0.024,0.396,0.075,0.459,0.124    c0.245,0,0.318,0.218,0.24,0.451l-0.849,1.769l-1.01,2.094l-0.006,0.004l-1.162,2.518l-0.652,1.326    c-0.078,0.232-0.454,0.471-0.699,0.471l-0.049,0.001c-0.073-0.143,0.104-0.955,0.392-2.018c0.19-0.696,0.421-1.495,0.672-2.284    c0.126-0.396,0.264-0.787,0.399-1.162c0.141-0.387,0.29-0.755,0.426-1.096C155.226,2.433,155.573,1.618,155.73,1.632z"/>   <path fill="#FBC259" d="M155.738,1.626c0.185-0.218,0.513-0.417,0.881-0.27c0.062,0.025,0.389,0.076,0.453,0.124    c0.239,0,0.309,0.214,0.231,0.441l-0.836,1.731L155.472,5.7l-0.006,0.004l-1.145,2.462l-0.644,1.296    c-0.076,0.227-0.446,0.462-0.686,0.462l-0.048,0.001c-0.071-0.142,0.104-0.936,0.385-1.976c0.186-0.682,0.412-1.464,0.658-2.236    c0.124-0.389,0.259-0.771,0.393-1.14c0.138-0.38,0.286-0.74,0.42-1.075C155.237,2.41,155.58,1.612,155.738,1.626z"/>   <path fill="#FBC25A" d="M155.746,1.621c0.184-0.213,0.508-0.404,0.871-0.259c0.062,0.025,0.383,0.076,0.447,0.125    c0.233,0,0.3,0.209,0.225,0.431l-0.824,1.692l-0.982,2.002l-0.006,0.004l-1.127,2.407l-0.635,1.268    c-0.074,0.221-0.439,0.452-0.673,0.452l-0.046,0.001c-0.068-0.14,0.102-0.917,0.377-1.934c0.182-0.667,0.402-1.433,0.645-2.188    c0.122-0.381,0.255-0.757,0.387-1.118c0.137-0.372,0.282-0.725,0.414-1.053C155.249,2.387,155.587,1.607,155.746,1.621z"/>   <path fill="#FBC35A" d="M155.754,1.616c0.183-0.208,0.502-0.393,0.861-0.249c0.063,0.025,0.377,0.077,0.442,0.126    c0.228,0,0.29,0.205,0.217,0.421l-0.812,1.654l-0.969,1.958l-0.005,0.003l-1.11,2.352l-0.626,1.239    c-0.073,0.216-0.432,0.442-0.659,0.442l-0.046,0.001c-0.065-0.138,0.102-0.898,0.37-1.891c0.179-0.652,0.396-1.401,0.632-2.14    c0.119-0.374,0.25-0.742,0.38-1.096c0.135-0.365,0.278-0.711,0.408-1.032C155.26,2.363,155.593,1.602,155.754,1.616z"/>   <path fill="#FBC35A" d="M155.762,1.61c0.181-0.202,0.497-0.381,0.852-0.237c0.063,0.025,0.371,0.077,0.437,0.126    c0.222,0,0.28,0.201,0.21,0.411l-0.801,1.616l-0.954,1.912l-0.007,0.003l-1.092,2.296l-0.617,1.211    c-0.071,0.21-0.424,0.433-0.646,0.433L153.1,9.383c-0.064-0.137,0.097-0.88,0.361-1.85c0.175-0.638,0.386-1.37,0.618-2.091    c0.118-0.366,0.246-0.728,0.374-1.074c0.132-0.357,0.274-0.696,0.403-1.01C155.272,2.341,155.6,1.596,155.762,1.61z"/>   <path fill="#FBC45A" d="M155.77,1.604c0.18-0.196,0.492-0.37,0.842-0.226c0.063,0.026,0.365,0.077,0.432,0.127    c0.216,0,0.271,0.197,0.201,0.402l-0.789,1.577l-0.939,1.867l-0.006,0.004l-1.075,2.241l-0.608,1.182    c-0.069,0.205-0.417,0.423-0.633,0.423l-0.042,0.001c-0.062-0.135,0.098-0.86,0.354-1.807c0.171-0.624,0.377-1.338,0.604-2.043    c0.115-0.358,0.242-0.712,0.368-1.052c0.13-0.35,0.27-0.681,0.396-0.989C155.282,2.317,155.606,1.59,155.77,1.604z"/>   <path fill="#FBC45B" d="M155.777,1.599c0.179-0.19,0.488-0.357,0.832-0.215c0.064,0.026,0.359,0.078,0.426,0.128    c0.211,0,0.262,0.192,0.194,0.392l-0.776,1.539l-0.926,1.821l-0.007,0.004l-1.058,2.186l-0.599,1.154    c-0.067,0.199-0.41,0.413-0.62,0.413l-0.041,0.001c-0.06-0.134,0.097-0.842,0.347-1.765c0.167-0.609,0.368-1.307,0.591-1.995    c0.114-0.351,0.238-0.697,0.362-1.029c0.128-0.343,0.266-0.667,0.39-0.967C155.295,2.293,155.613,1.585,155.777,1.599z"/>   <path fill="#FBC55B" d="M155.785,1.594c0.178-0.185,0.482-0.346,0.822-0.205c0.064,0.027,0.354,0.078,0.421,0.128    c0.204,0,0.252,0.188,0.187,0.382l-0.766,1.5l-0.911,1.776l-0.006,0.004l-1.04,2.13l-0.591,1.125    c-0.065,0.194-0.402,0.404-0.606,0.404l-0.041,0.001c-0.057-0.132,0.096-0.823,0.341-1.723c0.163-0.595,0.359-1.276,0.577-1.946    c0.111-0.344,0.233-0.683,0.355-1.008c0.126-0.334,0.261-0.651,0.385-0.945C155.309,2.272,155.62,1.579,155.785,1.594z"/>   <path fill="#FBC55B" d="M155.792,1.588c0.178-0.179,0.478-0.332,0.813-0.193c0.064,0.027,0.348,0.079,0.415,0.129    c0.198,0,0.243,0.183,0.179,0.371l-0.752,1.462l-0.898,1.73l-0.006,0.003l-1.022,2.075l-0.582,1.097    c-0.063,0.188-0.395,0.394-0.593,0.394l-0.04,0.001c-0.054-0.131,0.095-0.804,0.333-1.681c0.159-0.58,0.353-1.244,0.564-1.898    c0.108-0.336,0.229-0.668,0.349-0.986c0.124-0.328,0.258-0.637,0.379-0.924C155.318,2.248,155.627,1.574,155.792,1.588z"/>   <path fill="#FBC65B" d="M155.8,1.583c0.176-0.173,0.474-0.322,0.804-0.183c0.065,0.027,0.342,0.08,0.41,0.13    c0.192,0,0.233,0.179,0.172,0.362l-0.741,1.423L155.56,5l-0.006,0.004l-1.005,2.019l-0.573,1.068    c-0.062,0.183-0.388,0.384-0.579,0.384l-0.039,0.001c-0.052-0.129,0.092-0.785,0.325-1.638c0.155-0.566,0.343-1.213,0.551-1.85    c0.107-0.329,0.226-0.653,0.343-0.964c0.122-0.32,0.254-0.622,0.373-0.903C155.33,2.225,155.633,1.568,155.8,1.583z"/>   <path fill="#FBC65C" d="M155.808,1.578c0.175-0.167,0.468-0.309,0.794-0.172c0.065,0.027,0.337,0.08,0.404,0.131    c0.187,0,0.224,0.175,0.164,0.352l-0.729,1.385l-0.869,1.64l-0.007,0.004l-0.987,1.964l-0.564,1.04    c-0.06,0.177-0.38,0.375-0.566,0.375l-0.036,0.001c-0.051-0.128,0.091-0.767,0.317-1.597c0.151-0.55,0.335-1.181,0.537-1.801    c0.104-0.322,0.22-0.639,0.336-0.942c0.119-0.313,0.249-0.607,0.366-0.881C155.34,2.201,155.641,1.562,155.808,1.578z"/>   <path fill="#FBC75C" d="M155.815,1.572c0.174-0.162,0.463-0.298,0.785-0.161c0.064,0.028,0.33,0.08,0.398,0.131    c0.181,0,0.214,0.17,0.156,0.342l-0.718,1.347l-0.855,1.594l-0.006,0.003l-0.971,1.909l-0.555,1.011    c-0.059,0.172-0.373,0.364-0.554,0.364l-0.036,0.001c-0.047-0.126,0.089-0.747,0.311-1.554c0.147-0.537,0.328-1.149,0.524-1.753    c0.103-0.314,0.217-0.624,0.33-0.92c0.117-0.305,0.244-0.593,0.36-0.86C155.354,2.179,155.646,1.557,155.815,1.572z"/>   <path fill="#FCC75C" d="M155.823,1.566c0.173-0.157,0.458-0.286,0.775-0.15c0.065,0.028,0.324,0.081,0.394,0.133    c0.175,0,0.204,0.166,0.148,0.332l-0.706,1.308l-0.841,1.549l-0.007,0.003l-0.952,1.853l-0.547,0.983    c-0.057,0.166-0.365,0.354-0.54,0.354l-0.035,0.001c-0.045-0.124,0.089-0.728,0.304-1.512c0.145-0.521,0.316-1.118,0.51-1.705    c0.101-0.307,0.213-0.608,0.324-0.897c0.115-0.298,0.24-0.579,0.354-0.839C155.365,2.155,155.653,1.552,155.823,1.566z"/>   <path fill="#FCC85C" d="M155.83,1.561c0.172-0.151,0.453-0.274,0.767-0.139c0.065,0.028,0.318,0.081,0.388,0.133    c0.169,0,0.195,0.162,0.141,0.322l-0.693,1.27l-0.828,1.503l-0.006,0.004l-0.935,1.798l-0.538,0.954    c-0.055,0.16-0.357,0.345-0.527,0.345l-0.033,0.001c-0.043-0.123,0.088-0.709,0.296-1.469c0.141-0.507,0.31-1.086,0.497-1.657    c0.099-0.3,0.208-0.594,0.317-0.876c0.113-0.29,0.236-0.563,0.349-0.817C155.377,2.132,155.66,1.546,155.83,1.561z"/>   <path fill="#FCC85D" d="M155.838,1.556c0.172-0.146,0.447-0.261,0.757-0.128c0.066,0.029,0.312,0.082,0.383,0.134    c0.163,0,0.185,0.157,0.133,0.312l-0.682,1.231l-0.813,1.458l-0.006,0.004l-0.918,1.742l-0.529,0.926    c-0.053,0.155-0.35,0.335-0.514,0.335l-0.032,0.001c-0.041-0.121,0.085-0.69,0.288-1.427c0.136-0.493,0.302-1.055,0.484-1.608    c0.097-0.292,0.203-0.579,0.312-0.854c0.11-0.282,0.231-0.548,0.342-0.795C155.389,2.109,155.667,1.541,155.838,1.556z"/>   <path fill="#FCC95D" d="M155.846,1.55c0.17-0.14,0.443-0.25,0.747-0.118c0.066,0.029,0.307,0.082,0.377,0.135    c0.157,0,0.177,0.153,0.126,0.303l-0.67,1.193l-0.8,1.413l-0.006,0.003l-0.899,1.687l-0.521,0.897    c-0.051,0.149-0.342,0.325-0.5,0.325l-0.031,0.001c-0.039-0.12,0.085-0.671,0.281-1.385c0.133-0.479,0.292-1.024,0.47-1.561    c0.094-0.285,0.2-0.564,0.306-0.832c0.108-0.275,0.228-0.534,0.336-0.774C155.4,2.086,155.674,1.535,155.846,1.55z"/>   <path fill="#FCC95D" d="M155.854,1.545c0.169-0.134,0.438-0.238,0.737-0.106c0.067,0.03,0.302,0.083,0.372,0.136    c0.151,0,0.166,0.148,0.117,0.292l-0.657,1.154l-0.785,1.368l-0.007,0.004l-0.882,1.631l-0.513,0.869    c-0.049,0.144-0.334,0.315-0.486,0.315l-0.03,0.001c-0.036-0.119,0.084-0.652,0.273-1.343c0.129-0.463,0.284-0.992,0.457-1.512    c0.092-0.277,0.195-0.549,0.299-0.81c0.106-0.268,0.224-0.519,0.33-0.753C155.411,2.062,155.681,1.529,155.854,1.545z"/>   <path fill="#FCCA5D" d="M155.861,1.54c0.168-0.129,0.433-0.227,0.728-0.096c0.067,0.03,0.295,0.083,0.366,0.136    c0.146,0,0.157,0.145,0.11,0.283l-0.646,1.116l-0.771,1.322l-0.006,0.004l-0.865,1.575l-0.504,0.841    c-0.046,0.138-0.327,0.306-0.473,0.306l-0.029,0.001c-0.034-0.117,0.083-0.634,0.267-1.301c0.125-0.449,0.274-0.96,0.442-1.463    c0.09-0.27,0.191-0.535,0.293-0.788c0.104-0.26,0.22-0.505,0.324-0.731C155.423,2.04,155.687,1.524,155.861,1.54z"/>   <path fill="#FCCA5E" d="M155.868,1.534c0.168-0.123,0.43-0.215,0.72-0.084c0.067,0.03,0.288,0.083,0.359,0.137    c0.141,0,0.148,0.14,0.104,0.272l-0.634,1.078l-0.758,1.276l-0.006,0.003l-0.848,1.521l-0.494,0.812    c-0.045,0.133-0.32,0.296-0.46,0.296l-0.029,0.001c-0.031-0.115,0.082-0.615,0.26-1.259c0.121-0.434,0.267-0.929,0.43-1.415    c0.088-0.263,0.187-0.52,0.286-0.767c0.103-0.253,0.216-0.49,0.318-0.71C155.434,2.016,155.693,1.519,155.868,1.534z"/>   <path fill="#FCCB5E" d="M155.876,1.528c0.167-0.117,0.424-0.203,0.709-0.074c0.068,0.031,0.284,0.084,0.355,0.138    c0.135,0,0.139,0.136,0.096,0.263l-0.622,1.039l-0.744,1.231l-0.006,0.003l-0.83,1.465l-0.485,0.783    c-0.043,0.127-0.312,0.286-0.447,0.286l-0.026,0.001c-0.029-0.114,0.078-0.596,0.251-1.216c0.117-0.42,0.259-0.898,0.416-1.367    c0.086-0.256,0.184-0.506,0.28-0.745c0.101-0.246,0.212-0.476,0.312-0.688C155.446,1.993,155.7,1.513,155.876,1.528z"/>   <path fill="#FCCB5E" d="M155.884,1.523c0.165-0.111,0.418-0.191,0.7-0.062c0.068,0.031,0.277,0.084,0.35,0.139    c0.128,0,0.129,0.131,0.088,0.253l-0.61,1l-0.729,1.186l-0.007,0.004l-0.812,1.41l-0.477,0.754    c-0.042,0.122-0.305,0.277-0.434,0.277l-0.025,0.001c-0.027-0.112,0.076-0.578,0.243-1.175c0.113-0.405,0.25-0.865,0.403-1.318    c0.084-0.248,0.179-0.491,0.274-0.723c0.098-0.238,0.207-0.46,0.307-0.667C155.458,1.97,155.707,1.507,155.884,1.523z"/>   <path fill="#FCCC5E" d="M155.892,1.518c0.164-0.106,0.413-0.18,0.69-0.052c0.068,0.031,0.271,0.085,0.344,0.14    c0.123,0,0.12,0.127,0.08,0.243l-0.598,0.962l-0.716,1.14l-0.006,0.003l-0.796,1.354l-0.468,0.726    c-0.04,0.116-0.298,0.267-0.42,0.267l-0.024,0.001c-0.025-0.11,0.076-0.559,0.236-1.132c0.109-0.391,0.24-0.835,0.389-1.271    c0.082-0.24,0.175-0.475,0.269-0.7c0.096-0.231,0.203-0.446,0.301-0.646C155.469,1.947,155.714,1.502,155.892,1.518z"/>   <path fill="#FCCC5F" d="M155.899,1.512c0.163-0.1,0.409-0.168,0.681-0.041c0.068,0.032,0.266,0.085,0.339,0.14    c0.116,0,0.109,0.123,0.072,0.233l-0.586,0.923l-0.701,1.095l-0.007,0.004l-0.777,1.299l-0.46,0.697    c-0.038,0.111-0.29,0.257-0.406,0.257l-0.024,0.001c-0.021-0.108,0.077-0.539,0.23-1.09c0.105-0.376,0.232-0.803,0.375-1.222    c0.08-0.233,0.17-0.461,0.262-0.679c0.095-0.223,0.198-0.431,0.294-0.624C155.479,1.923,155.72,1.496,155.899,1.512z"/>   <path fill="#FCCD5F" d="M155.907,1.507c0.162-0.095,0.403-0.155,0.671-0.03c0.068,0.032,0.26,0.085,0.333,0.141    c0.11,0,0.101,0.118,0.065,0.224l-0.574,0.886l-0.688,1.049l-0.006,0.004l-0.761,1.244l-0.451,0.669    c-0.035,0.105-0.282,0.247-0.394,0.247l-0.022,0.001c-0.02-0.107,0.075-0.52,0.223-1.047c0.103-0.362,0.224-0.771,0.362-1.174    c0.077-0.226,0.166-0.446,0.255-0.656c0.092-0.216,0.195-0.417,0.289-0.604C155.491,1.9,155.727,1.491,155.907,1.507z"/>   <path fill="#FDCD5F" d="M155.915,1.501c0.16-0.089,0.398-0.145,0.661-0.02c0.068,0.033,0.254,0.086,0.328,0.142    c0.104,0,0.091,0.113,0.058,0.213l-0.562,0.847l-0.674,1.004l-0.006,0.004l-0.743,1.188l-0.442,0.64    c-0.033,0.1-0.274,0.238-0.38,0.238l-0.021,0.001c-0.018-0.105,0.073-0.502,0.215-1.005c0.098-0.347,0.215-0.74,0.349-1.125    c0.075-0.218,0.161-0.432,0.249-0.634c0.09-0.209,0.19-0.401,0.283-0.582C155.503,1.877,155.733,1.485,155.915,1.501z"/>   <path fill="#FDCE5F" d="M155.923,1.496c0.159-0.083,0.393-0.131,0.651-0.008c0.069,0.033,0.248,0.086,0.322,0.143    c0.1,0,0.082,0.11,0.05,0.204l-0.55,0.808l-0.66,0.958l-0.006,0.004l-0.725,1.132l-0.435,0.612    c-0.031,0.094-0.268,0.228-0.366,0.228l-0.021,0.001c-0.015-0.104,0.071-0.482,0.207-0.963c0.094-0.333,0.207-0.708,0.336-1.077    c0.073-0.21,0.157-0.416,0.243-0.612c0.087-0.201,0.186-0.387,0.276-0.561C155.514,1.854,155.74,1.48,155.923,1.496z"/>   <path fill="#FDCE60" d="M155.93,1.49c0.159-0.078,0.388-0.12,0.643,0.003c0.069,0.033,0.242,0.087,0.317,0.143    c0.093,0,0.072,0.105,0.042,0.194l-0.538,0.77l-0.646,0.914l-0.007,0.003l-0.707,1.077l-0.425,0.584    c-0.03,0.088-0.261,0.218-0.354,0.218l-0.02,0.001c-0.013-0.103,0.071-0.463,0.2-0.921c0.091-0.318,0.198-0.676,0.322-1.028    c0.071-0.203,0.152-0.402,0.236-0.591c0.085-0.193,0.182-0.372,0.271-0.539C155.526,1.831,155.746,1.474,155.93,1.49z"/>   <path fill="#FDCF60" d="M155.938,1.485c0.158-0.072,0.383-0.109,0.633,0.013c0.07,0.034,0.236,0.088,0.312,0.144    c0.088,0,0.063,0.101,0.035,0.184l-0.526,0.731l-0.632,0.868l-0.007,0.003l-0.689,1.022l-0.416,0.555    c-0.028,0.083-0.253,0.208-0.34,0.208l-0.019,0.001c-0.011-0.101,0.068-0.445,0.192-0.879c0.087-0.304,0.189-0.646,0.309-0.98    c0.069-0.196,0.149-0.387,0.23-0.569c0.083-0.186,0.178-0.357,0.265-0.517C155.536,1.807,155.753,1.469,155.938,1.485z"/>   <path fill="#FDCF60" d="M155.945,1.479c0.157-0.066,0.378-0.098,0.624,0.024c0.069,0.035,0.23,0.088,0.306,0.145    c0.081,0,0.053,0.096,0.026,0.174l-0.514,0.693l-0.617,0.823l-0.007,0.003l-0.673,0.966l-0.407,0.527    c-0.026,0.077-0.245,0.198-0.326,0.198l-0.018,0.001c-0.008-0.1,0.068-0.426,0.186-0.837c0.083-0.289,0.182-0.614,0.295-0.932    c0.067-0.189,0.145-0.373,0.224-0.547c0.082-0.179,0.174-0.343,0.259-0.496C155.547,1.783,155.76,1.463,155.945,1.479z"/>   <path fill="#FDCF60" d="M155.953,1.474c0.156-0.061,0.372-0.085,0.613,0.035c0.071,0.036,0.226,0.089,0.301,0.146    c0.076,0,0.044,0.092,0.02,0.164l-0.502,0.655l-0.604,0.777l-0.007,0.003l-0.655,0.911l-0.398,0.498    c-0.024,0.072-0.238,0.189-0.313,0.189l-0.016,0.001c-0.006-0.098,0.066-0.407,0.178-0.794c0.079-0.275,0.173-0.583,0.281-0.884    c0.065-0.181,0.14-0.358,0.218-0.525c0.079-0.171,0.17-0.328,0.253-0.474C155.558,1.76,155.767,1.458,155.953,1.474z"/>   <path fill="#FDD061" d="M155.961,1.469c0.154-0.055,0.367-0.074,0.604,0.046c0.07,0.036,0.219,0.089,0.295,0.146    c0.069,0,0.034,0.088,0.012,0.154l-0.491,0.616l-0.589,0.731l-0.006,0.004l-0.639,0.855l-0.39,0.47    c-0.022,0.066-0.23,0.179-0.3,0.179l-0.015,0.001c-0.004-0.097,0.064-0.388,0.17-0.753c0.075-0.26,0.165-0.551,0.269-0.835    c0.063-0.173,0.136-0.343,0.211-0.502c0.077-0.164,0.165-0.313,0.247-0.453C155.57,1.738,155.773,1.452,155.961,1.469z"/>   <path fill="#FDD061" d="M155.969,1.463c0.153-0.05,0.362-0.062,0.595,0.057c0.07,0.036,0.213,0.089,0.289,0.147    c0.064,0,0.025,0.083,0.005,0.145l-0.479,0.578l-0.575,0.686l-0.006,0.004l-0.62,0.8l-0.382,0.441    c-0.021,0.061-0.223,0.169-0.286,0.169l-0.014,0.001c-0.002-0.095,0.064-0.369,0.163-0.71c0.071-0.245,0.156-0.519,0.255-0.788    c0.061-0.166,0.132-0.327,0.205-0.48c0.075-0.156,0.16-0.299,0.24-0.432C155.581,1.714,155.78,1.447,155.969,1.463z"/>   <path fill="#FDD161" d="M155.977,1.458c0.152-0.043,0.357-0.05,0.585,0.068c0.07,0.037,0.207,0.09,0.284,0.148    c0.059,0,0.016,0.079-0.003,0.134l-0.468,0.539l-0.561,0.641l-0.007,0.003l-0.603,0.745l-0.373,0.413    c-0.019,0.055-0.215,0.16-0.272,0.16l-0.013,0.001c0.001-0.093,0.062-0.351,0.155-0.668c0.067-0.231,0.148-0.487,0.241-0.739    c0.059-0.159,0.128-0.313,0.199-0.458c0.073-0.149,0.155-0.284,0.234-0.411C155.591,1.69,155.787,1.441,155.977,1.458z"/>   <path fill="#FDD161" d="M155.984,1.452c0.143-0.062,0.352-0.038,0.575,0.079c0.071,0.037,0.201,0.09,0.278,0.149    c0.053,0,0.007,0.075-0.011,0.125l-0.454,0.5l-0.548,0.596l-0.007,0.003l-0.585,0.689l-0.364,0.384    c-0.017,0.05-0.207,0.15-0.26,0.15l-0.012,0.001c0.004-0.092,0.062-0.332,0.149-0.626c0.063-0.216,0.14-0.457,0.228-0.691    c0.057-0.151,0.123-0.298,0.192-0.437c0.071-0.141,0.152-0.269,0.229-0.389C155.603,1.667,155.81,1.529,155.984,1.452z"/>   <path fill="#FDD262" d="M155.991,1.447c0.145-0.054,0.347-0.026,0.566,0.09c0.071,0.038,0.195,0.091,0.273,0.149    c0.047,0-0.004,0.07-0.019,0.115l-0.442,0.462l-0.534,0.55l-0.007,0.004l-0.567,0.633l-0.354,0.356    c-0.015,0.044-0.2,0.14-0.247,0.14l-0.01,0.001c0.005-0.09,0.06-0.312,0.141-0.584c0.06-0.202,0.13-0.425,0.214-0.643    c0.056-0.144,0.12-0.283,0.188-0.415c0.068-0.133,0.146-0.255,0.222-0.367C155.612,1.643,155.812,1.514,155.991,1.447z"/>   <path fill="#FDD262" d="M155.999,1.441c0.145-0.046,0.342-0.015,0.557,0.1c0.072,0.039,0.189,0.092,0.268,0.15    c0.041,0-0.013,0.066-0.025,0.105l-0.432,0.424l-0.519,0.504l-0.007,0.003l-0.551,0.579l-0.346,0.327    c-0.013,0.039-0.192,0.13-0.233,0.13l-0.009,0.001c0.008-0.088,0.058-0.294,0.133-0.542c0.057-0.187,0.123-0.393,0.201-0.594    c0.053-0.136,0.115-0.269,0.181-0.393c0.066-0.126,0.142-0.24,0.216-0.346C155.623,1.62,155.815,1.5,155.999,1.441z"/>   <path fill="#FED362" d="M156.007,1.436c0.145-0.039,0.336-0.002,0.547,0.111c0.072,0.039,0.184,0.092,0.263,0.151    c0.035,0-0.022,0.061-0.033,0.095l-0.42,0.385l-0.505,0.459l-0.007,0.003l-0.532,0.523l-0.338,0.298    c-0.011,0.033-0.186,0.12-0.22,0.12l-0.008,0.001c0.01-0.086,0.058-0.274,0.126-0.5c0.053-0.172,0.113-0.362,0.187-0.545    c0.052-0.129,0.111-0.254,0.175-0.371c0.064-0.119,0.138-0.226,0.211-0.325C155.634,1.597,155.819,1.486,156.007,1.436z"/>   <path fill="#FED362" d="M156.015,1.431c0.146-0.03,0.331,0.008,0.537,0.122c0.071,0.04,0.178,0.092,0.257,0.152    c0.029,0-0.031,0.058-0.041,0.085l-0.407,0.347l-0.491,0.414l-0.006,0.003l-0.516,0.468l-0.329,0.27    c-0.009,0.028-0.178,0.111-0.207,0.111l-0.007,0.001c0.013-0.085,0.057-0.256,0.119-0.457c0.049-0.158,0.106-0.331,0.174-0.498    c0.049-0.122,0.106-0.239,0.168-0.349c0.062-0.111,0.134-0.211,0.205-0.303C155.645,1.573,155.823,1.47,156.015,1.431z"/>   <path fill="#FED463" d="M156.022,1.425c0.146-0.022,0.326,0.019,0.528,0.133c0.071,0.04,0.172,0.093,0.251,0.153    c0.023,0-0.041,0.053-0.049,0.075l-0.396,0.309l-0.477,0.369l-0.007,0.003l-0.498,0.412l-0.32,0.242    c-0.007,0.022-0.17,0.101-0.193,0.101l-0.006,0.001c0.016-0.084,0.057-0.236,0.112-0.415c0.045-0.144,0.098-0.299,0.159-0.449    c0.047-0.114,0.103-0.225,0.162-0.327c0.06-0.104,0.129-0.196,0.199-0.281C155.654,1.549,155.828,1.455,156.022,1.425z"/>   <path fill="#FED463" d="M156.03,1.419c0.145-0.012,0.32,0.031,0.519,0.144c0.071,0.041,0.166,0.093,0.246,0.153    c0.018,0-0.051,0.049-0.057,0.065l-0.384,0.27l-0.463,0.324l-0.007,0.003l-0.48,0.356l-0.312,0.213    c-0.005,0.017-0.162,0.091-0.18,0.091l-0.005,0.001c0.018-0.083,0.055-0.218,0.104-0.373c0.041-0.129,0.089-0.267,0.146-0.401    c0.046-0.106,0.098-0.21,0.155-0.305c0.058-0.097,0.125-0.183,0.193-0.26C155.664,1.525,155.834,1.436,156.03,1.419z"/>   <path fill="#FED563" d="M156.037,1.414c0.145,0.007,0.316,0.044,0.51,0.155c0.072,0.042,0.16,0.094,0.24,0.154    c0.012,0-0.061,0.044-0.064,0.055l-0.371,0.232l-0.449,0.278l-0.007,0.003l-0.462,0.301l-0.303,0.184    c-0.004,0.011-0.155,0.082-0.167,0.082L154.96,2.86c0.02-0.081,0.053-0.199,0.097-0.331c0.038-0.114,0.082-0.235,0.134-0.353    c0.043-0.099,0.094-0.194,0.149-0.283c0.056-0.089,0.119-0.168,0.187-0.239C155.674,1.5,155.839,1.404,156.037,1.414z"/>   <path fill="#FED563" d="M156.046,1.409c0.143,0.01,0.31,0.055,0.499,0.166c0.072,0.042,0.154,0.094,0.235,0.155    c0.006,0-0.07,0.04-0.072,0.045l-0.359,0.193l-0.436,0.232l-0.007,0.003l-0.445,0.246l-0.293,0.156    c-0.002,0.006-0.147,0.072-0.153,0.072l-0.003,0.001c0.022-0.079,0.052-0.18,0.089-0.289c0.034-0.1,0.075-0.204,0.121-0.304    c0.041-0.091,0.089-0.18,0.143-0.261s0.114-0.154,0.181-0.217C155.684,1.476,155.848,1.395,156.046,1.409z"/>   <path fill="#FED664" d="M155.063,2.498c0.024-0.078,0.051-0.161,0.082-0.247c0.03-0.085,0.065-0.172,0.106-0.256    c0.04-0.084,0.086-0.165,0.137-0.239c0.052-0.074,0.109-0.141,0.175-0.196c0.13-0.11,0.29-0.174,0.489-0.157    c0.198,0.018,0.436,0.117,0.72,0.333l-0.427,0.19l-0.428,0.19l-0.428,0.19L155.063,2.498z"/>  </g> </g></g></svg>